<svg width="78" height="25" viewBox="0 0 78 25" fill="none" xmlns="http://www.w3.org/2000/svg">
<path d="M2.63672 11.1348C2.73438 11.0176 2.79297 10.8027 2.8125 10.4902C2.85156 10.1582 2.92969 9.78711 3.04688 9.37695C3.18359 8.9668 3.4082 8.53711 3.7207 8.08789C4.0332 7.63867 4.54102 7.21875 5.24414 6.82812C5.92773 6.4375 6.5918 6.20312 7.23633 6.125C7.88086 6.04688 8.49609 6.07617 9.08203 6.21289C9.66797 6.34961 10.2148 6.56445 10.7227 6.85742C11.25 7.15039 11.7285 7.47266 12.1582 7.82422C12.4512 8.05859 12.6855 8.40039 12.8613 8.84961C13.0371 9.2793 13.1738 9.76758 13.2715 10.3145C13.3691 10.8613 13.4375 11.4375 13.4766 12.043C13.5352 12.6289 13.5742 13.2051 13.5938 13.7715C13.6133 14.3184 13.623 14.8262 13.623 15.2949C13.6426 15.7441 13.6816 16.1152 13.7402 16.4082C13.8184 16.8379 13.9551 17.209 14.1504 17.5215C14.3457 17.8145 14.5605 18.0684 14.7949 18.2832C15.0293 18.4785 15.2637 18.6348 15.498 18.752C15.7324 18.8691 15.9375 18.957 16.1133 19.0156C16.2305 19.0742 16.3379 19.1133 16.4355 19.1328C16.6309 19.2109 16.7676 19.2109 16.8457 19.1328C16.7285 19.4062 16.6211 19.6406 16.5234 19.8359C16.4258 20.0312 16.3477 20.1973 16.2891 20.334C16.2109 20.4902 16.1426 20.6172 16.084 20.7148C16.0254 20.832 15.957 20.9395 15.8789 21.0371C15.8203 21.1348 15.7422 21.2422 15.6445 21.3594C15.5469 21.4766 15.4492 21.6035 15.3516 21.7402C15.0977 21.6426 14.8535 21.5254 14.6191 21.3887C14.4043 21.252 14.209 21.125 14.0332 21.0078C13.8184 20.8711 13.623 20.7344 13.4473 20.5977C13.2715 20.4609 13.1055 20.3047 12.9492 20.1289C12.8125 19.9727 12.666 19.8066 12.5098 19.6309C12.373 19.4551 12.2559 19.2598 12.1582 19.0449C12.041 19.2988 11.7578 19.6602 11.3086 20.1289C10.8789 20.5977 10.3125 21.0273 9.60938 21.418C8.90625 21.7891 8.08594 22.0527 7.14844 22.209C6.23047 22.3652 5.21484 22.2578 4.10156 21.8867C3.61328 21.7305 3.1543 21.5059 2.72461 21.2129C2.29492 20.9004 1.92383 20.5293 1.61133 20.0996C1.31836 19.6699 1.10352 19.1816 0.966797 18.6348C0.849609 18.0684 0.859375 17.4434 0.996094 16.7598C1.13281 16.0762 1.37695 15.5 1.72852 15.0312C2.08008 14.5625 2.5 14.1816 2.98828 13.8887C3.47656 13.5957 4.02344 13.3711 4.62891 13.2148C5.23438 13.0586 5.85938 12.9512 6.50391 12.8926C7.01172 12.873 7.51953 12.9023 8.02734 12.9805C8.45703 13.0586 8.90625 13.2051 9.375 13.4199C9.84375 13.6152 10.2441 13.918 10.5762 14.3281C10.5566 13.293 10.5176 12.4727 10.459 11.8672C10.4199 11.2422 10.3809 10.7637 10.3418 10.4316C10.2637 10.041 10.1953 9.76758 10.1367 9.61133C10.0391 9.47461 9.93164 9.31836 9.81445 9.14258C9.7168 8.9668 9.58984 8.81055 9.43359 8.67383C9.27734 8.51758 9.08203 8.39062 8.84766 8.29297C8.61328 8.19531 8.33984 8.15625 8.02734 8.17578C7.69531 8.19531 7.43164 8.2832 7.23633 8.43945C7.04102 8.5957 6.88477 8.78125 6.76758 8.99609C6.66992 9.19141 6.61133 9.40625 6.5918 9.64062C6.57227 9.875 6.58203 10.0801 6.62109 10.2559C6.66016 10.373 6.71875 10.5 6.79688 10.6367C6.875 10.7539 6.98242 10.8809 7.11914 11.0176C7.25586 11.1543 7.44141 11.2715 7.67578 11.3691C7.22656 11.4277 6.82617 11.4766 6.47461 11.5156C6.12305 11.5352 5.82031 11.5645 5.56641 11.6035C5.27344 11.6426 5.01953 11.6719 4.80469 11.6914C4.58984 11.7109 4.33594 11.75 4.04297 11.8086C3.78906 11.8477 3.47656 11.8965 3.10547 11.9551C2.73438 12.0137 2.30469 12.0918 1.81641 12.1895C1.93359 12.0527 2.04102 11.9258 2.13867 11.8086C2.23633 11.6719 2.32422 11.5547 2.40234 11.457C2.48047 11.3398 2.55859 11.2324 2.63672 11.1348ZM7.03125 14.6211C6.67969 14.6406 6.32812 14.7285 5.97656 14.8848C5.625 15.0215 5.3125 15.2266 5.03906 15.5C4.76562 15.7539 4.53125 16.0566 4.33594 16.4082C4.16016 16.7402 4.07227 17.1113 4.07227 17.5215C4.07227 17.9316 4.16992 18.293 4.36523 18.6055C4.58008 18.8984 4.85352 19.1426 5.18555 19.3379C5.53711 19.5332 5.9082 19.6504 6.29883 19.6895C6.70898 19.7285 7.10938 19.6895 7.5 19.5723C7.87109 19.4355 8.22266 19.2207 8.55469 18.9277C8.88672 18.6152 9.16992 18.2832 9.4043 17.9316C9.63867 17.5605 9.80469 17.1992 9.90234 16.8477C10 16.4766 10.0098 16.1738 9.93164 15.9395C9.77539 15.4316 9.42383 15.0801 8.87695 14.8848C8.33008 14.6699 7.71484 14.582 7.03125 14.6211ZM17.4609 19.7773C17.5977 19.1328 17.6953 18.5664 17.7539 18.0781C17.832 17.5703 17.8906 17.1504 17.9297 16.8184C17.9688 16.4277 17.9883 16.0957 17.9883 15.8223C17.9688 15.4902 17.9492 15.0996 17.9297 14.6504C17.9297 14.1816 17.9102 13.7227 17.8711 13.2734C17.8516 12.8047 17.8223 12.3945 17.7832 12.043C17.7441 11.6719 17.6953 11.4082 17.6367 11.252C17.5586 11.0957 17.4512 10.9297 17.3145 10.7539C17.041 10.4219 16.6406 10.0996 16.1133 9.78711C16.5625 9.68945 16.9434 9.61133 17.2559 9.55273C17.5879 9.47461 17.8613 9.40625 18.0762 9.34766C18.3105 9.26953 18.5156 9.20117 18.6914 9.14258C18.8477 9.08398 19.0332 9.02539 19.248 8.9668C19.4238 8.92773 19.6387 8.87891 19.8926 8.82031C20.1465 8.76172 20.4395 8.69336 20.7715 8.61523L20.6836 11.2812C21.3086 10.5391 21.9434 9.98242 22.5879 9.61133C23.2324 9.24023 23.8379 8.97656 24.4043 8.82031C25.0488 8.625 25.6836 8.52734 26.3086 8.52734C27.0898 8.56641 27.8125 8.69336 28.4766 8.9082C29.1602 9.12305 29.7461 9.37695 30.2344 9.66992C30.7422 9.94336 31.1523 10.2363 31.4648 10.5488C31.7773 10.8613 31.9629 11.1348 32.0215 11.3691C32.2559 12.1309 32.3145 12.834 32.1973 13.4785C32.0801 14.1035 31.9238 14.7188 31.7285 15.3242C31.5527 15.9102 31.3965 16.4961 31.2598 17.082C31.1426 17.668 31.1914 18.3027 31.4062 18.9863C31.4844 19.1621 31.5625 19.3379 31.6406 19.5137C31.7188 19.6699 31.8164 19.8262 31.9336 19.9824C32.0508 20.1387 32.1875 20.2656 32.3438 20.3633C32.1289 20.3438 31.9141 20.334 31.6992 20.334C31.4844 20.3145 31.2891 20.2949 31.1133 20.2754C30.8984 20.2559 30.7031 20.2363 30.5273 20.2168C30.332 20.1973 30.0684 20.1875 29.7363 20.1875C29.1699 20.1875 28.291 20.2168 27.0996 20.2754C27.2754 19.8652 27.4121 19.5234 27.5098 19.25C27.627 18.957 27.7246 18.7227 27.8027 18.5469C27.8809 18.332 27.9395 18.166 27.9785 18.0488C28.2129 17.4824 28.3496 16.8379 28.3887 16.1152C28.4473 15.3926 28.3984 14.6602 28.2422 13.918C28.1836 13.6641 28.0859 13.3613 27.9492 13.0098C27.8125 12.6582 27.627 12.3164 27.3926 11.9844C27.1777 11.6523 26.9141 11.3691 26.6016 11.1348C26.3086 10.9004 25.9668 10.7637 25.5762 10.7246C25.1855 10.6855 24.7461 10.7832 24.2578 11.0176C23.7891 11.252 23.2812 11.6816 22.7344 12.3066C22.3242 12.834 22.002 13.4785 21.7676 14.2402C21.5527 14.8848 21.4062 15.6953 21.3281 16.6719C21.25 17.6289 21.3672 18.752 21.6797 20.041C21.4062 20.002 21.1523 19.9824 20.918 19.9824C20.6836 19.9629 20.4883 19.9434 20.332 19.9238C20.1367 19.9043 19.9609 19.8848 19.8047 19.8652C19.6289 19.8652 19.4336 19.8555 19.2188 19.8359C19.0234 19.8359 18.7793 19.8359 18.4863 19.8359C18.1934 19.8164 17.8516 19.7969 17.4609 19.7773ZM48.2227 0.558594C48.5938 0.578125 48.9941 0.587891 49.4238 0.587891C49.7949 0.587891 50.2148 0.597656 50.6836 0.617188C51.1719 0.617188 51.6797 0.597656 52.207 0.558594C51.7383 0.773438 51.3281 1.08594 50.9766 1.49609C50.625 1.90625 50.3418 2.31641 50.127 2.72656C49.8535 3.21484 49.6289 3.72266 49.4531 4.25C49.3555 4.5625 49.2773 5.11914 49.2188 5.91992C49.1602 6.70117 49.1113 7.61914 49.0723 8.67383C49.0527 9.72852 49.043 10.8418 49.043 12.0137C49.043 13.1855 49.0527 14.3086 49.0723 15.3828C49.0918 16.4375 49.1211 17.375 49.1602 18.1953C49.1992 19.0156 49.248 19.5918 49.3066 19.9238C49.3848 20.3145 49.4824 20.6855 49.5996 21.0371C49.6973 21.3496 49.8242 21.6719 49.9805 22.0039C50.1367 22.3164 50.332 22.5703 50.5664 22.7656L47.5781 24.1133C47.4219 23.8984 47.2949 23.6738 47.1973 23.4395C47.0996 23.2246 47.0215 23.0293 46.9629 22.8535C46.8848 22.6387 46.8359 22.4434 46.8164 22.2676C46.7773 22.0332 46.7383 21.7793 46.6992 21.5059C46.6602 21.2129 46.6113 20.9395 46.5527 20.6855C46.5137 20.4121 46.4844 20.1875 46.4648 20.0117C46.4453 19.8359 46.4453 19.7285 46.4648 19.6895C46.4844 19.6504 46.3672 19.8262 46.1133 20.2168C45.8594 20.5879 45.4785 21.0273 44.9707 21.5352C44.4824 22.0234 43.877 22.502 43.1543 22.9707C42.4316 23.4199 41.6211 23.7031 40.7227 23.8203C39.8047 23.9375 38.9551 23.7617 38.1738 23.293C37.4121 22.8242 36.7578 22.1699 36.2109 21.3301C35.6641 20.4707 35.2441 19.4844 34.9512 18.3711C34.6777 17.2383 34.5703 16.0859 34.6289 14.9141C34.668 14.1328 34.8438 13.4395 35.1562 12.834C35.4688 12.209 35.8594 11.6719 36.3281 11.2227C36.8164 10.7539 37.3438 10.3633 37.9102 10.0508C38.4961 9.71875 39.0625 9.44531 39.6094 9.23047C40.1758 9.01562 40.7031 8.85938 41.1914 8.76172C41.6797 8.66406 42.0703 8.5957 42.3633 8.55664C42.7148 8.53711 43.1152 8.5957 43.5645 8.73242C43.9551 8.84961 44.4043 9.04492 44.9121 9.31836C45.4395 9.5918 46.0254 10.002 46.6699 10.5488C46.5527 8.5957 46.4453 7.0332 46.3477 5.86133C46.25 4.66992 46.1523 3.76172 46.0547 3.13672C45.957 2.39453 45.8691 1.88672 45.791 1.61328C45.6934 1.41797 45.5664 1.22266 45.4102 1.02734C45.2734 0.871094 45.0977 0.714844 44.8828 0.558594C44.6875 0.382812 44.4531 0.246094 44.1797 0.148438C44.6875 0.246094 45.1758 0.314453 45.6445 0.353516C46.1133 0.392578 46.543 0.431641 46.9336 0.470703C47.3828 0.509766 47.8125 0.539063 48.2227 0.558594ZM40.8691 11.4863C40.498 11.623 40.1953 11.8574 39.9609 12.1895C39.7461 12.5215 39.5703 12.9219 39.4336 13.3906C39.2969 13.8398 39.1992 14.3281 39.1406 14.8555C39.1016 15.3633 39.0723 15.8613 39.0527 16.3496C39.0527 16.8184 39.0527 17.248 39.0527 17.6387C39.0527 18.0293 39.0527 18.3223 39.0527 18.5176C39.0527 18.6348 39.0723 18.8496 39.1113 19.1621C39.1699 19.4551 39.2871 19.7676 39.4629 20.0996C39.6387 20.4121 39.8828 20.6953 40.1953 20.9492C40.5273 21.2031 40.9668 21.3301 41.5137 21.3301C41.9629 21.291 42.4414 21.1348 42.9492 20.8613C43.3984 20.627 43.9062 20.2559 44.4727 19.748C45.0586 19.2207 45.6836 18.4688 46.3477 17.4922C46.3086 16.8672 46.2793 16.3496 46.2598 15.9395C46.2598 15.5293 46.25 15.1973 46.2305 14.9434C46.2109 14.6504 46.2012 14.416 46.2012 14.2402V13.8008C46.2012 13.6836 46.2012 13.5566 46.2012 13.4199C46.2012 13.2832 46.2109 13.1562 46.2305 13.0391C45.6836 12.6484 45.1953 12.3164 44.7656 12.043C44.3555 11.75 43.9453 11.5352 43.5352 11.3984C43.1445 11.2422 42.7344 11.1738 42.3047 11.1934C41.8945 11.1934 41.416 11.291 40.8691 11.4863ZM63.3984 11.1348C63.4961 11.0176 63.5547 10.8027 63.5742 10.4902C63.6133 10.1582 63.6914 9.78711 63.8086 9.37695C63.9453 8.9668 64.1699 8.53711 64.4824 8.08789C64.7949 7.63867 65.3027 7.21875 66.0059 6.82812C66.6895 6.4375 67.3535 6.20312 67.998 6.125C68.6426 6.04688 69.2578 6.07617 69.8438 6.21289C70.4297 6.34961 70.9766 6.56445 71.4844 6.85742C72.0117 7.15039 72.4902 7.47266 72.9199 7.82422C73.2129 8.05859 73.4473 8.40039 73.623 8.84961C73.7988 9.2793 73.9355 9.76758 74.0332 10.3145C74.1309 10.8613 74.1992 11.4375 74.2383 12.043C74.2969 12.6289 74.3359 13.2051 74.3555 13.7715C74.375 14.3184 74.3848 14.8262 74.3848 15.2949C74.4043 15.7441 74.4434 16.1152 74.502 16.4082C74.5801 16.8379 74.7168 17.209 74.9121 17.5215C75.1074 17.8145 75.3223 18.0684 75.5566 18.2832C75.791 18.4785 76.0254 18.6348 76.2598 18.752C76.4941 18.8691 76.6992 18.957 76.875 19.0156C76.9922 19.0742 77.0996 19.1133 77.1973 19.1328C77.3926 19.2109 77.5293 19.2109 77.6074 19.1328C77.4902 19.4062 77.3828 19.6406 77.2852 19.8359C77.1875 20.0312 77.1094 20.1973 77.0508 20.334C76.9727 20.4902 76.9043 20.6172 76.8457 20.7148C76.7871 20.832 76.7188 20.9395 76.6406 21.0371C76.582 21.1348 76.5039 21.2422 76.4062 21.3594C76.3086 21.4766 76.2109 21.6035 76.1133 21.7402C75.8594 21.6426 75.6152 21.5254 75.3809 21.3887C75.166 21.252 74.9707 21.125 74.7949 21.0078C74.5801 20.8711 74.3848 20.7344 74.209 20.5977C74.0332 20.4609 73.8672 20.3047 73.7109 20.1289C73.5742 19.9727 73.4277 19.8066 73.2715 19.6309C73.1348 19.4551 73.0176 19.2598 72.9199 19.0449C72.8027 19.2988 72.5195 19.6602 72.0703 20.1289C71.6406 20.5977 71.0742 21.0273 70.3711 21.418C69.668 21.7891 68.8477 22.0527 67.9102 22.209C66.9922 22.3652 65.9766 22.2578 64.8633 21.8867C64.375 21.7305 63.916 21.5059 63.4863 21.2129C63.0566 20.9004 62.6855 20.5293 62.373 20.0996C62.0801 19.6699 61.8652 19.1816 61.7285 18.6348C61.6113 18.0684 61.6211 17.4434 61.7578 16.7598C61.8945 16.0762 62.1387 15.5 62.4902 15.0312C62.8418 14.5625 63.2617 14.1816 63.75 13.8887C64.2383 13.5957 64.7852 13.3711 65.3906 13.2148C65.9961 13.0586 66.6211 12.9512 67.2656 12.8926C67.7734 12.873 68.2812 12.9023 68.7891 12.9805C69.2188 13.0586 69.668 13.2051 70.1367 13.4199C70.6055 13.6152 71.0059 13.918 71.3379 14.3281C71.3184 13.293 71.2793 12.4727 71.2207 11.8672C71.1816 11.2422 71.1426 10.7637 71.1035 10.4316C71.0254 10.041 70.957 9.76758 70.8984 9.61133C70.8008 9.47461 70.6934 9.31836 70.5762 9.14258C70.4785 8.9668 70.3516 8.81055 70.1953 8.67383C70.0391 8.51758 69.8438 8.39062 69.6094 8.29297C69.375 8.19531 69.1016 8.15625 68.7891 8.17578C68.457 8.19531 68.1934 8.2832 67.998 8.43945C67.8027 8.5957 67.6465 8.78125 67.5293 8.99609C67.4316 9.19141 67.373 9.40625 67.3535 9.64062C67.334 9.875 67.3438 10.0801 67.3828 10.2559C67.4219 10.373 67.4805 10.5 67.5586 10.6367C67.6367 10.7539 67.7441 10.8809 67.8809 11.0176C68.0176 11.1543 68.2031 11.2715 68.4375 11.3691C67.9883 11.4277 67.5879 11.4766 67.2363 11.5156C66.8848 11.5352 66.582 11.5645 66.3281 11.6035C66.0352 11.6426 65.7812 11.6719 65.5664 11.6914C65.3516 11.7109 65.0977 11.75 64.8047 11.8086C64.5508 11.8477 64.2383 11.8965 63.8672 11.9551C63.4961 12.0137 63.0664 12.0918 62.5781 12.1895C62.6953 12.0527 62.8027 11.9258 62.9004 11.8086C62.998 11.6719 63.0859 11.5547 63.1641 11.457C63.2422 11.3398 63.3203 11.2324 63.3984 11.1348ZM67.793 14.6211C67.4414 14.6406 67.0898 14.7285 66.7383 14.8848C66.3867 15.0215 66.0742 15.2266 65.8008 15.5C65.5273 15.7539 65.293 16.0566 65.0977 16.4082C64.9219 16.7402 64.834 17.1113 64.834 17.5215C64.834 17.9316 64.9316 18.293 65.127 18.6055C65.3418 18.8984 65.6152 19.1426 65.9473 19.3379C66.2988 19.5332 66.6699 19.6504 67.0605 19.6895C67.4707 19.7285 67.8711 19.6895 68.2617 19.5723C68.6328 19.4355 68.9844 19.2207 69.3164 18.9277C69.6484 18.6152 69.9316 18.2832 70.166 17.9316C70.4004 17.5605 70.5664 17.1992 70.6641 16.8477C70.7617 16.4766 70.7715 16.1738 70.6934 15.9395C70.5371 15.4316 70.1855 15.0801 69.6387 14.8848C69.0918 14.6699 68.4766 14.582 67.793 14.6211Z" fill="black"/>
</svg>
