<svg width="227" height="28" viewBox="0 0 227 28" fill="none" xmlns="http://www.w3.org/2000/svg">
<path d="M0.0917969 0.199219C0.775391 0.277344 1.35156 0.335937 1.82031 0.375C2.28906 0.394531 2.66016 0.414063 2.93359 0.433594C3.26562 0.453125 3.5293 0.462891 3.72461 0.462891C4.05664 0.462891 4.4375 0.453125 4.86719 0.433594C5.23828 0.414063 5.66797 0.384766 6.15625 0.345703C6.66406 0.287109 7.21094 0.199219 7.79688 0.0820312C7.52344 0.375 7.29883 0.658203 7.12305 0.931641C6.94727 1.18555 6.81055 1.41992 6.71289 1.63477C6.5957 1.86914 6.49805 2.08398 6.41992 2.2793C6.3418 2.5332 6.25391 2.92383 6.15625 3.45117C6.05859 3.90039 5.95117 4.53516 5.83398 5.35547C5.73633 6.17578 5.60938 7.25 5.45312 8.57812C6.11719 8.59766 6.69336 8.60742 7.18164 8.60742C7.66992 8.58789 8.08008 8.57812 8.41211 8.57812H9.37891C9.65234 8.55859 9.96484 8.53906 10.3164 8.51953C10.9023 8.5 11.791 8.44141 12.9824 8.34375C13.0801 7.44531 13.1289 6.67383 13.1289 6.0293C13.1484 5.36523 13.1387 4.80859 13.0996 4.35938C13.0605 3.85156 13.002 3.42188 12.9238 3.07031C12.8652 2.875 12.7773 2.64063 12.6602 2.36719C12.5625 2.13281 12.4258 1.84961 12.25 1.51758C12.0938 1.16602 11.8789 0.746094 11.6055 0.257812C12.1133 0.335937 12.5625 0.394531 12.9531 0.433594C13.3633 0.453125 13.7051 0.472656 13.9785 0.492188C14.291 0.511719 14.5547 0.521484 14.7695 0.521484C14.9844 0.521484 15.2676 0.511719 15.6191 0.492188C15.9121 0.472656 16.2734 0.462891 16.7031 0.462891C17.1328 0.443359 17.6602 0.414063 18.2852 0.375C18.1289 0.648438 17.9922 0.931641 17.875 1.22461C17.7578 1.51758 17.6602 1.78125 17.582 2.01562C17.5039 2.28906 17.4258 2.5625 17.3477 2.83594C17.25 3.24609 17.1621 3.8418 17.084 4.62305C17.0254 5.4043 16.9668 6.27344 16.9082 7.23047C16.8691 8.1875 16.8301 9.18359 16.791 10.2188C16.7715 11.2539 16.752 12.2305 16.7324 13.1484C16.7324 14.0664 16.7422 14.8867 16.7617 15.6094C16.7812 16.3125 16.8203 16.8105 16.8789 17.1035C16.9375 17.4551 17.0352 17.8164 17.1719 18.1875C17.2891 18.5195 17.4453 18.8809 17.6406 19.2715C17.8359 19.6426 18.0898 19.9941 18.4023 20.3262L11.3418 20.8535C11.6348 20.5801 11.8691 20.3164 12.0449 20.0625C12.2207 19.7891 12.3574 19.5547 12.4551 19.3594C12.5527 19.1445 12.6211 18.9395 12.6602 18.7441C12.6797 18.5098 12.709 18.0996 12.748 17.5137C12.7871 17.0254 12.8262 16.332 12.8652 15.4336C12.9043 14.5352 12.9434 13.3438 12.9824 11.8594C12.709 11.8594 12.377 11.8691 11.9863 11.8887C11.6152 11.8887 11.2637 11.8984 10.9316 11.918C10.541 11.9375 10.1309 11.9473 9.70117 11.9473C9.27148 11.9668 8.82227 11.9863 8.35352 12.0059C7.96289 12.0449 7.52344 12.084 7.03516 12.123C6.56641 12.1426 6.09766 12.1719 5.62891 12.2109C5.58984 13.0312 5.58984 13.7539 5.62891 14.3789C5.66797 14.9844 5.72656 15.502 5.80469 15.9316C5.88281 16.4395 5.98047 16.8789 6.09766 17.25C6.21484 17.6016 6.3418 17.9531 6.47852 18.3047C6.5957 18.6172 6.73242 18.9492 6.88867 19.3008C7.06445 19.6523 7.24023 19.9648 7.41602 20.2383C7.04492 20.1992 6.70312 20.1699 6.39062 20.1504C6.07812 20.1113 5.80469 20.0723 5.57031 20.0332C5.29688 20.0137 5.0332 19.9941 4.7793 19.9746C4.52539 19.9746 4.22266 19.9648 3.87109 19.9453C3.55859 19.9258 3.16797 19.916 2.69922 19.916C2.23047 19.8965 1.68359 19.8867 1.05859 19.8867C1.42969 19.5156 1.72266 19.1543 1.9375 18.8027C2.17188 18.4316 2.33789 18.0996 2.43555 17.8066C2.55273 17.4551 2.63086 17.1328 2.66992 16.8398C2.68945 16.5859 2.69922 16.1074 2.69922 15.4043C2.71875 14.7012 2.71875 13.9004 2.69922 13.002C2.69922 12.084 2.68945 11.127 2.66992 10.1309C2.65039 9.11523 2.62109 8.16797 2.58203 7.28906C2.5625 6.41016 2.5332 5.6582 2.49414 5.0332C2.47461 4.38867 2.45508 3.98828 2.43555 3.83203C2.33789 3.48047 2.19141 3.09961 1.99609 2.68945C1.82031 2.35742 1.58594 1.97656 1.29297 1.54688C1 1.09766 0.599609 0.648438 0.0917969 0.199219ZM21.332 9.13477C21.4297 9.01758 21.4883 8.80273 21.5078 8.49023C21.5469 8.1582 21.625 7.78711 21.7422 7.37695C21.8789 6.9668 22.1035 6.53711 22.416 6.08789C22.7285 5.63867 23.2363 5.21875 23.9395 4.82812C24.623 4.4375 25.2871 4.20312 25.9316 4.125C26.5762 4.04688 27.1914 4.07617 27.7773 4.21289C28.3633 4.34961 28.9102 4.56445 29.418 4.85742C29.9453 5.15039 30.4238 5.47266 30.8535 5.82422C31.1465 6.05859 31.3809 6.40039 31.5566 6.84961C31.7324 7.2793 31.8691 7.76758 31.9668 8.31445C32.0645 8.86133 32.1328 9.4375 32.1719 10.043C32.2305 10.6289 32.2695 11.2051 32.2891 11.7715C32.3086 12.3184 32.3184 12.8262 32.3184 13.2949C32.3379 13.7441 32.377 14.1152 32.4355 14.4082C32.5137 14.8379 32.6504 15.209 32.8457 15.5215C33.041 15.8145 33.2559 16.0684 33.4902 16.2832C33.7246 16.4785 33.959 16.6348 34.1934 16.752C34.4277 16.8691 34.6328 16.957 34.8086 17.0156C34.9258 17.0742 35.0332 17.1133 35.1309 17.1328C35.3262 17.2109 35.4629 17.2109 35.541 17.1328C35.4238 17.4062 35.3164 17.6406 35.2188 17.8359C35.1211 18.0312 35.043 18.1973 34.9844 18.334C34.9062 18.4902 34.8379 18.6172 34.7793 18.7148C34.7207 18.832 34.6523 18.9395 34.5742 19.0371C34.5156 19.1348 34.4375 19.2422 34.3398 19.3594C34.2422 19.4766 34.1445 19.6035 34.0469 19.7402C33.793 19.6426 33.5488 19.5254 33.3145 19.3887C33.0996 19.252 32.9043 19.125 32.7285 19.0078C32.5137 18.8711 32.3184 18.7344 32.1426 18.5977C31.9668 18.4609 31.8008 18.3047 31.6445 18.1289C31.5078 17.9727 31.3613 17.8066 31.2051 17.6309C31.0684 17.4551 30.9512 17.2598 30.8535 17.0449C30.7363 17.2988 30.4531 17.6602 30.0039 18.1289C29.5742 18.5977 29.0078 19.0273 28.3047 19.418C27.6016 19.7891 26.7812 20.0527 25.8438 20.209C24.9258 20.3652 23.9102 20.2578 22.7969 19.8867C22.3086 19.7305 21.8496 19.5059 21.4199 19.2129C20.9902 18.9004 20.6191 18.5293 20.3066 18.0996C20.0137 17.6699 19.7988 17.1816 19.6621 16.6348C19.5449 16.0684 19.5547 15.4434 19.6914 14.7598C19.8281 14.0762 20.0723 13.5 20.4238 13.0312C20.7754 12.5625 21.1953 12.1816 21.6836 11.8887C22.1719 11.5957 22.7188 11.3711 23.3242 11.2148C23.9297 11.0586 24.5547 10.9512 25.1992 10.8926C25.707 10.873 26.2148 10.9023 26.7227 10.9805C27.1523 11.0586 27.6016 11.2051 28.0703 11.4199C28.5391 11.6152 28.9395 11.918 29.2715 12.3281C29.252 11.293 29.2129 10.4727 29.1543 9.86719C29.1152 9.24219 29.0762 8.76367 29.0371 8.43164C28.959 8.04102 28.8906 7.76758 28.832 7.61133C28.7344 7.47461 28.627 7.31836 28.5098 7.14258C28.4121 6.9668 28.2852 6.81055 28.1289 6.67383C27.9727 6.51758 27.7773 6.39062 27.543 6.29297C27.3086 6.19531 27.0352 6.15625 26.7227 6.17578C26.3906 6.19531 26.127 6.2832 25.9316 6.43945C25.7363 6.5957 25.5801 6.78125 25.4629 6.99609C25.3652 7.19141 25.3066 7.40625 25.2871 7.64062C25.2676 7.875 25.2773 8.08008 25.3164 8.25586C25.3555 8.37305 25.4141 8.5 25.4922 8.63672C25.5703 8.75391 25.6777 8.88086 25.8145 9.01758C25.9512 9.1543 26.1367 9.27148 26.3711 9.36914C25.9219 9.42773 25.5215 9.47656 25.1699 9.51562C24.8184 9.53516 24.5156 9.56445 24.2617 9.60352C23.9688 9.64258 23.7148 9.67188 23.5 9.69141C23.2852 9.71094 23.0312 9.75 22.7383 9.80859C22.4844 9.84766 22.1719 9.89648 21.8008 9.95508C21.4297 10.0137 21 10.0918 20.5117 10.1895C20.6289 10.0527 20.7363 9.92578 20.834 9.80859C20.9316 9.67188 21.0195 9.55469 21.0977 9.45703C21.1758 9.33984 21.2539 9.23242 21.332 9.13477ZM25.7266 12.6211C25.375 12.6406 25.0234 12.7285 24.6719 12.8848C24.3203 13.0215 24.0078 13.2266 23.7344 13.5C23.4609 13.7539 23.2266 14.0566 23.0312 14.4082C22.8555 14.7402 22.7676 15.1113 22.7676 15.5215C22.7676 15.9316 22.8652 16.293 23.0605 16.6055C23.2754 16.8984 23.5488 17.1426 23.8809 17.3379C24.2324 17.5332 24.6035 17.6504 24.9941 17.6895C25.4043 17.7285 25.8047 17.6895 26.1953 17.5723C26.5664 17.4355 26.918 17.2207 27.25 16.9277C27.582 16.6152 27.8652 16.2832 28.0996 15.9316C28.334 15.5605 28.5 15.1992 28.5977 14.8477C28.6953 14.4766 28.7051 14.1738 28.627 13.9395C28.4707 13.4316 28.1191 13.0801 27.5723 12.8848C27.0254 12.6699 26.4102 12.582 25.7266 12.6211ZM34.3691 7.34766C34.9941 7.25 35.502 7.17188 35.8926 7.11328C36.3027 7.03516 36.6348 6.97656 36.8887 6.9375C37.1816 6.87891 37.4062 6.83008 37.5625 6.79102C37.7188 6.75195 37.9434 6.69336 38.2363 6.61523C38.4902 6.53711 38.8223 6.44922 39.2324 6.35156C39.6426 6.23438 40.1602 6.07812 40.7852 5.88281C40.6289 6.07812 40.502 6.25391 40.4043 6.41016C40.3262 6.54688 40.248 6.66406 40.1699 6.76172C40.0918 6.87891 40.0234 6.98633 39.9648 7.08398C39.9062 7.18164 39.8477 7.32812 39.7891 7.52344C39.75 7.67969 39.7012 7.9043 39.6426 8.19727C39.584 8.4707 39.5352 8.83203 39.4961 9.28125C40.5508 8.61719 41.5176 8.11914 42.3965 7.78711C43.2949 7.45508 44.0762 7.2207 44.7402 7.08398C45.5215 6.92773 46.2246 6.86914 46.8496 6.9082C47.6309 6.9668 48.3535 7.14258 49.0176 7.43555C49.7012 7.70898 50.3164 8.04102 50.8633 8.43164C51.4102 8.82227 51.8887 9.25195 52.2988 9.7207C52.709 10.1895 53.0312 10.6582 53.2656 11.127C53.4219 11.4395 53.5195 11.8887 53.5586 12.4746C53.6172 13.0605 53.5586 13.6855 53.3828 14.3496C53.207 15.0137 52.8945 15.668 52.4453 16.3125C52.0156 16.9375 51.4004 17.4355 50.5996 17.8066C49.2129 18.4316 47.8359 18.7832 46.4688 18.8613C45.8828 18.9004 45.2773 18.8809 44.6523 18.8027C44.0469 18.7246 43.4316 18.5586 42.8066 18.3047C42.2012 18.0508 41.6152 17.6895 41.0488 17.2207C40.4824 16.7324 39.9648 16.1074 39.4961 15.3457C39.3398 16.3418 39.2227 17.2109 39.1445 17.9531C39.0859 18.6758 39.0469 19.2812 39.0273 19.7695C39.0078 20.3359 39.0078 20.8145 39.0273 21.2051C39.0664 21.5957 39.1445 22.0156 39.2617 22.4648C39.3594 22.8555 39.4961 23.3047 39.6719 23.8125C39.8672 24.3398 40.1113 24.8867 40.4043 25.4531C40.2871 25.4141 40.1211 25.3848 39.9062 25.3652C39.7109 25.3652 39.5059 25.3848 39.291 25.4238C39.0566 25.4629 38.793 25.502 38.5 25.541C38.2266 25.5996 37.9238 25.668 37.5918 25.7461C37.3184 25.8047 36.9961 25.873 36.625 25.9512C36.2734 26.0488 35.9121 26.1562 35.541 26.2734C35.7559 26.0195 35.9219 25.7266 36.0391 25.3945C36.1758 25.082 36.2832 24.7891 36.3613 24.5156C36.4395 24.1836 36.5078 23.8516 36.5664 23.5195C36.5859 23.2266 36.6152 22.6699 36.6543 21.8496C36.7129 21.0488 36.7617 20.1211 36.8008 19.0664C36.8398 17.9922 36.8691 16.8691 36.8887 15.6973C36.9277 14.5254 36.9473 13.4414 36.9473 12.4453C36.9668 11.4297 36.9668 10.5703 36.9473 9.86719C36.9277 9.16406 36.8887 8.75391 36.8301 8.63672C36.752 8.5 36.6055 8.35352 36.3906 8.19727C36.2148 8.06055 35.9609 7.92383 35.6289 7.78711C35.3164 7.65039 34.8965 7.50391 34.3691 7.34766ZM41.3418 12.6797C41.2051 13.1289 41.1758 13.5684 41.2539 13.998C41.332 14.4277 41.5273 14.8281 41.8398 15.1992C42.1719 15.5703 42.6309 15.9023 43.2168 16.1953C43.8223 16.4688 44.5742 16.6738 45.4727 16.8105C46.3711 16.9473 47.0547 16.9277 47.5234 16.752C47.9922 16.5762 48.334 16.3027 48.5488 15.9316C48.7832 15.541 48.9395 15.0918 49.0176 14.584C49.0957 14.0566 49.1934 13.5098 49.3105 12.9434C49.4277 12.3965 49.4082 11.8398 49.252 11.2734C49.0957 10.6875 48.8711 10.1602 48.5781 9.69141C48.3047 9.22266 47.9922 8.8418 47.6406 8.54883C47.3086 8.23633 47.0156 8.08008 46.7617 8.08008C46.1562 8.08008 45.5605 8.23633 44.9746 8.54883C44.3887 8.86133 43.8516 9.25195 43.3633 9.7207C42.875 10.1895 42.4453 10.6973 42.0742 11.2441C41.7227 11.7715 41.4785 12.25 41.3418 12.6797ZM53.8809 7.34766C54.5059 7.25 55.0137 7.17188 55.4043 7.11328C55.8145 7.03516 56.1465 6.97656 56.4004 6.9375C56.6934 6.87891 56.918 6.83008 57.0742 6.79102C57.2305 6.75195 57.4551 6.69336 57.748 6.61523C58.002 6.53711 58.334 6.44922 58.7441 6.35156C59.1543 6.23438 59.6719 6.07812 60.2969 5.88281C60.1406 6.07812 60.0137 6.25391 59.916 6.41016C59.8379 6.54688 59.7598 6.66406 59.6816 6.76172C59.6035 6.87891 59.5352 6.98633 59.4766 7.08398C59.418 7.18164 59.3594 7.32812 59.3008 7.52344C59.2617 7.67969 59.2129 7.9043 59.1543 8.19727C59.0957 8.4707 59.0469 8.83203 59.0078 9.28125C60.0625 8.61719 61.0293 8.11914 61.9082 7.78711C62.8066 7.45508 63.5879 7.2207 64.252 7.08398C65.0332 6.92773 65.7363 6.86914 66.3613 6.9082C67.1426 6.9668 67.8652 7.14258 68.5293 7.43555C69.2129 7.70898 69.8281 8.04102 70.375 8.43164C70.9219 8.82227 71.4004 9.25195 71.8105 9.7207C72.2207 10.1895 72.543 10.6582 72.7773 11.127C72.9336 11.4395 73.0312 11.8887 73.0703 12.4746C73.1289 13.0605 73.0703 13.6855 72.8945 14.3496C72.7188 15.0137 72.4062 15.668 71.957 16.3125C71.5273 16.9375 70.9121 17.4355 70.1113 17.8066C68.7246 18.4316 67.3477 18.7832 65.9805 18.8613C65.3945 18.9004 64.7891 18.8809 64.1641 18.8027C63.5586 18.7246 62.9434 18.5586 62.3184 18.3047C61.7129 18.0508 61.127 17.6895 60.5605 17.2207C59.9941 16.7324 59.4766 16.1074 59.0078 15.3457C58.8516 16.3418 58.7344 17.2109 58.6562 17.9531C58.5977 18.6758 58.5586 19.2812 58.5391 19.7695C58.5195 20.3359 58.5195 20.8145 58.5391 21.2051C58.5781 21.5957 58.6562 22.0156 58.7734 22.4648C58.8711 22.8555 59.0078 23.3047 59.1836 23.8125C59.3789 24.3398 59.623 24.8867 59.916 25.4531C59.7988 25.4141 59.6328 25.3848 59.418 25.3652C59.2227 25.3652 59.0176 25.3848 58.8027 25.4238C58.5684 25.4629 58.3047 25.502 58.0117 25.541C57.7383 25.5996 57.4355 25.668 57.1035 25.7461C56.8301 25.8047 56.5078 25.873 56.1367 25.9512C55.7852 26.0488 55.4238 26.1562 55.0527 26.2734C55.2676 26.0195 55.4336 25.7266 55.5508 25.3945C55.6875 25.082 55.7949 24.7891 55.873 24.5156C55.9512 24.1836 56.0195 23.8516 56.0781 23.5195C56.0977 23.2266 56.127 22.6699 56.166 21.8496C56.2246 21.0488 56.2734 20.1211 56.3125 19.0664C56.3516 17.9922 56.3809 16.8691 56.4004 15.6973C56.4395 14.5254 56.459 13.4414 56.459 12.4453C56.4785 11.4297 56.4785 10.5703 56.459 9.86719C56.4395 9.16406 56.4004 8.75391 56.3418 8.63672C56.2637 8.5 56.1172 8.35352 55.9023 8.19727C55.7266 8.06055 55.4727 7.92383 55.1406 7.78711C54.8281 7.65039 54.4082 7.50391 53.8809 7.34766ZM60.8535 12.6797C60.7168 13.1289 60.6875 13.5684 60.7656 13.998C60.8438 14.4277 61.0391 14.8281 61.3516 15.1992C61.6836 15.5703 62.1426 15.9023 62.7285 16.1953C63.334 16.4688 64.0859 16.6738 64.9844 16.8105C65.8828 16.9473 66.5664 16.9277 67.0352 16.752C67.5039 16.5762 67.8457 16.3027 68.0605 15.9316C68.2949 15.541 68.4512 15.0918 68.5293 14.584C68.6074 14.0566 68.7051 13.5098 68.8223 12.9434C68.9395 12.3965 68.9199 11.8398 68.7637 11.2734C68.6074 10.6875 68.3828 10.1602 68.0898 9.69141C67.8164 9.22266 67.5039 8.8418 67.1523 8.54883C66.8203 8.23633 66.5273 8.08008 66.2734 8.08008C65.668 8.08008 65.0723 8.23633 64.4863 8.54883C63.9004 8.86133 63.3633 9.25195 62.875 9.7207C62.3867 10.1895 61.957 10.6973 61.5859 11.2441C61.2344 11.7715 60.9902 12.25 60.8535 12.6797ZM72.7773 6.0293C73.168 6.08789 73.5195 6.13672 73.832 6.17578C74.125 6.19531 74.3887 6.21484 74.623 6.23438C74.877 6.25391 75.1211 6.26367 75.3555 6.26367C75.5703 6.26367 75.8438 6.25391 76.1758 6.23438C76.4492 6.21484 76.8008 6.19531 77.2305 6.17578C77.6797 6.13672 78.207 6.08789 78.8125 6.0293C78.7734 6.10742 78.6953 6.35156 78.5781 6.76172C78.4609 7.15234 78.3438 7.64062 78.2266 8.22656C78.1094 8.79297 78.002 9.42773 77.9043 10.1309C77.8262 10.8145 77.7871 11.498 77.7871 12.1816C77.8066 12.8457 77.8945 13.4805 78.0508 14.0859C78.207 14.6719 78.4609 15.1504 78.8125 15.5215C79.5547 16.2832 80.209 16.7422 80.7754 16.8984C81.3613 17.0547 81.8691 17.0352 82.2988 16.8398C82.7285 16.6445 83.0801 16.3516 83.3535 15.9609C83.627 15.5703 83.8223 15.209 83.9395 14.877C84.2324 13.9785 84.4082 13.0312 84.4668 12.0352C84.5059 11.1758 84.4375 10.2188 84.2617 9.16406C84.0859 8.10938 83.666 7.03516 83.002 5.94141C83.5098 5.98047 83.9492 6.00977 84.3203 6.0293C84.6914 6.04883 85.0137 6.06836 85.2871 6.08789C85.5996 6.10742 85.873 6.12695 86.1074 6.14648C86.3223 6.16602 86.5762 6.16602 86.8691 6.14648C87.123 6.14648 87.4258 6.13672 87.7773 6.11719C88.1484 6.07812 88.5586 6.03906 89.0078 6C89.0859 7.91406 89.1543 9.62305 89.2129 11.127C89.2715 12.6113 89.3105 13.9297 89.3301 15.082C89.3691 16.2148 89.3887 17.2012 89.3887 18.041C89.3887 18.8613 89.3887 19.5547 89.3887 20.1211C89.3691 21.4688 89.3105 22.3574 89.2129 22.7871C89.0566 23.3926 88.7734 23.998 88.3633 24.6035C87.9727 25.209 87.4746 25.7461 86.8691 26.2148C86.2637 26.7031 85.5605 27.0742 84.7598 27.3281C83.9785 27.6016 83.1191 27.6992 82.1816 27.6211C81.2637 27.543 80.5312 27.416 79.9844 27.2402C79.457 27.084 79.0371 26.8984 78.7246 26.6836C78.4316 26.4688 78.2168 26.2441 78.0801 26.0098C77.9629 25.7754 77.875 25.5312 77.8164 25.2773C77.7578 25.043 77.6992 24.8184 77.6406 24.6035C77.582 24.3887 77.4648 24.2031 77.2891 24.0469C77.0742 23.8711 76.8496 23.6953 76.6152 23.5195C76.4004 23.3633 76.166 23.207 75.9121 23.0508C75.6777 22.8945 75.4434 22.7676 75.209 22.6699L81.4492 22.3184C81.2734 22.5527 81.1465 22.7676 81.0684 22.9629C80.9902 23.1582 80.9414 23.3242 80.9219 23.4609C80.9023 23.6367 80.9121 23.7832 80.9512 23.9004C81.0293 24.1348 81.166 24.3887 81.3613 24.6621C81.5762 24.9551 81.8496 25.1797 82.1816 25.3359C82.5137 25.5117 82.9043 25.5703 83.3535 25.5117C83.8223 25.4531 84.3496 25.209 84.9355 24.7793C85.4238 24.4082 85.834 23.8125 86.166 22.9922C86.4395 22.2891 86.6543 21.3027 86.8105 20.0332C86.9668 18.7637 86.9375 17.0938 86.7227 15.0234C86.3711 16.2344 85.8926 17.1621 85.2871 17.8066C84.6816 18.4512 84.0762 18.9199 83.4707 19.2129C82.7676 19.5645 82.0352 19.75 81.2734 19.7695C80.2578 19.7305 79.3887 19.6035 78.666 19.3887C77.9434 19.1543 77.3477 18.8418 76.8789 18.4512C76.4102 18.0605 76.0391 17.6016 75.7656 17.0742C75.5117 16.5273 75.3262 15.9219 75.209 15.2578C75.0918 14.5938 75.0332 13.9297 75.0332 13.2656C75.0332 12.582 75.0332 11.9473 75.0332 11.3613C75.0527 10.7754 75.0625 10.248 75.0625 9.7793C75.0625 9.29102 75.0137 8.90039 74.916 8.60742C74.7988 8.31445 74.6426 8.02148 74.4473 7.72852C74.291 7.47461 74.0762 7.20117 73.8027 6.9082C73.5098 6.5957 73.168 6.30273 72.7773 6.0293ZM100.375 0.228516C101.254 0.384766 101.977 0.492188 102.543 0.550781C103.109 0.609375 103.568 0.658203 103.92 0.697266C104.33 0.736328 104.652 0.746094 104.887 0.726562H105.766C106.078 0.726562 106.469 0.726562 106.938 0.726562C107.426 0.707031 108.031 0.697266 108.754 0.697266C109.164 1.6543 109.535 2.5332 109.867 3.33398C110.219 4.13477 110.512 4.81836 110.746 5.38477C111.02 6.06836 111.273 6.68359 111.508 7.23047C111.781 7.91406 112.074 8.66602 112.387 9.48633C112.699 10.3066 112.982 11.0781 113.236 11.8008C113.51 12.5234 113.734 13.1191 113.91 13.5879C114.086 14.0566 114.174 14.2715 114.174 14.2324C114.174 14.2129 114.184 14.0176 114.203 13.6465C114.223 13.2559 114.242 12.7773 114.262 12.2109C114.281 11.625 114.301 10.9902 114.32 10.3066C114.359 9.60352 114.379 8.92969 114.379 8.28516C114.398 7.62109 114.408 7.01562 114.408 6.46875C114.408 5.92188 114.389 5.51172 114.35 5.23828C114.291 4.90625 114.174 4.52539 113.998 4.0957C113.842 3.72461 113.627 3.28516 113.354 2.77734C113.08 2.25 112.699 1.6543 112.211 0.990234C113.012 1.00977 113.666 1.01953 114.174 1.01953C114.682 1.01953 115.092 1.01953 115.404 1.01953C115.756 1.01953 116.029 1.00977 116.225 0.990234C116.479 0.990234 116.791 0.970703 117.162 0.931641C117.494 0.892578 117.904 0.863281 118.393 0.84375C118.9 0.804687 119.525 0.755859 120.268 0.697266C119.838 1.08789 119.496 1.45898 119.242 1.81055C118.988 2.16211 118.783 2.47461 118.627 2.74805C118.451 3.06055 118.334 3.35352 118.275 3.62695C118.197 3.97852 118.129 4.55469 118.07 5.35547C118.031 6.13672 117.982 7.01562 117.924 7.99219C117.885 8.96875 117.846 9.98438 117.807 11.0391C117.768 12.0938 117.729 13.0605 117.689 13.9395C117.689 14.6035 117.67 15.3164 117.631 16.0781C117.592 16.7227 117.553 17.4551 117.514 18.2754C117.475 19.0762 117.426 19.8867 117.367 20.707L114.76 20.7656C113.998 19.418 113.354 18.2656 112.826 17.3086C112.318 16.332 111.898 15.5312 111.566 14.9062C111.195 14.1836 110.883 13.5781 110.629 13.0898C110.414 12.6211 110.131 12.084 109.779 11.4785C109.486 10.9707 109.115 10.3457 108.666 9.60352C108.236 8.86133 107.719 8.01172 107.113 7.05469C107.055 8.40234 107.025 9.55469 107.025 10.5117C107.045 11.4492 107.074 12.2305 107.113 12.8555C107.172 13.5781 107.24 14.1836 107.318 14.6719C107.416 15.1406 107.553 15.668 107.729 16.2539C107.885 16.7617 108.07 17.3574 108.285 18.041C108.52 18.7246 108.803 19.4961 109.135 20.3555C107.982 20.2969 107.123 20.2676 106.557 20.2676H105.678C105.404 20.2676 105.033 20.2969 104.564 20.3555C104.174 20.3945 103.637 20.4531 102.953 20.5312C102.289 20.6094 101.459 20.7168 100.463 20.8535C100.932 20.2871 101.303 19.7695 101.576 19.3008C101.869 18.8125 102.094 18.4023 102.25 18.0703C102.445 17.6797 102.582 17.3379 102.66 17.0449C102.719 16.7324 102.758 16.1953 102.777 15.4336C102.797 14.6523 102.797 13.7734 102.777 12.7969C102.777 11.8008 102.758 10.7559 102.719 9.66211C102.699 8.56836 102.67 7.55273 102.631 6.61523C102.592 5.67773 102.543 4.87695 102.484 4.21289C102.445 3.54883 102.416 3.13867 102.396 2.98242C102.338 2.72852 102.221 2.45508 102.045 2.16211C101.889 1.9082 101.684 1.625 101.43 1.3125C101.176 0.980469 100.824 0.619141 100.375 0.228516ZM127.592 16.2832C128.139 16.2832 128.646 16.2246 129.115 16.1074C129.506 16.0098 129.877 15.8535 130.229 15.6387C130.6 15.4043 130.844 15.0625 130.961 14.6133C131.352 14.6914 131.684 14.7598 131.957 14.8184C132.23 14.8574 132.465 14.8965 132.66 14.9355C132.875 14.9941 133.061 15.0332 133.217 15.0527C133.373 15.0918 133.559 15.1309 133.773 15.1699C133.969 15.209 134.203 15.2578 134.477 15.3164C134.77 15.3555 135.111 15.4141 135.502 15.4922C135.209 15.4531 134.906 15.4824 134.594 15.5801C134.301 15.6777 134.018 15.7852 133.744 15.9023C133.432 16.0391 133.139 16.2051 132.865 16.4004C132.689 16.5176 132.484 16.6934 132.25 16.9277C132.035 17.1621 131.723 17.3867 131.312 17.6016C130.902 17.8164 130.355 18.002 129.672 18.1582C129.008 18.2949 128.148 18.3438 127.094 18.3047C125.824 18.2656 124.76 18.041 123.9 17.6309C123.041 17.2012 122.348 16.6836 121.82 16.0781C121.293 15.4531 120.912 14.7793 120.678 14.0566C120.443 13.334 120.316 12.6602 120.297 12.0352C120.277 11.4102 120.463 10.7559 120.854 10.0723C121.244 9.38867 121.791 8.76367 122.494 8.19727C123.217 7.63086 124.086 7.17188 125.102 6.82031C126.117 6.44922 127.23 6.26367 128.441 6.26367C129.145 6.26367 129.789 6.35156 130.375 6.52734C130.98 6.68359 131.527 6.89844 132.016 7.17188C132.523 7.44531 132.963 7.75781 133.334 8.10938C133.705 8.44141 134.018 8.7832 134.271 9.13477C134.525 9.50586 134.74 9.89648 134.916 10.3066C135.072 10.6582 135.199 11.0586 135.297 11.5078C135.395 11.957 135.424 12.416 135.385 12.8848C133.9 12.9238 132.699 12.9531 131.781 12.9727C130.883 12.9922 130.18 13.002 129.672 13.002H128.354H127.357C127.006 13.002 126.547 13.0117 125.98 13.0312C125.414 13.0508 124.721 13.0801 123.9 13.1191C123.998 13.9004 124.242 14.5059 124.633 14.9355C125.043 15.3457 125.473 15.6582 125.922 15.873C126.43 16.1074 126.986 16.2441 127.592 16.2832ZM124.955 11.0098C125.58 11.0488 126.098 11.0781 126.508 11.0977C126.938 11.1172 127.289 11.1367 127.562 11.1562C127.855 11.1758 128.09 11.1855 128.266 11.1855H128.998C129.486 11.1855 130.395 11.1562 131.723 11.0977C131.664 10.2383 131.479 9.58398 131.166 9.13477C130.873 8.68555 130.561 8.35352 130.229 8.13867C129.838 7.9043 129.408 7.76758 128.939 7.72852C127.67 7.74805 126.723 8.01172 126.098 8.51953C125.492 9.02734 125.111 9.85742 124.955 11.0098ZM134.77 7.49414C135.355 7.5332 135.873 7.5625 136.322 7.58203C136.791 7.60156 137.182 7.62109 137.494 7.64062C137.846 7.66016 138.158 7.66992 138.432 7.66992C138.705 7.66992 139.018 7.66016 139.369 7.64062C139.682 7.62109 140.062 7.5918 140.512 7.55273C140.98 7.49414 141.518 7.41602 142.123 7.31836C141.654 7.61133 141.273 7.88477 140.98 8.13867C140.707 8.37305 140.492 8.58789 140.336 8.7832C140.16 8.99805 140.043 9.19336 139.984 9.36914C139.945 9.52539 139.906 9.83789 139.867 10.3066C139.848 10.7559 139.828 11.2832 139.809 11.8887C139.809 12.4746 139.818 13.0996 139.838 13.7637C139.857 14.4277 139.887 15.0332 139.926 15.5801C139.965 16.1074 140.023 16.5566 140.102 16.9277C140.18 17.2793 140.277 17.4453 140.395 17.4258C140.551 17.2891 140.805 16.8301 141.156 16.0488C141.293 15.7168 141.459 15.2969 141.654 14.7891C141.85 14.2617 142.074 13.627 142.328 12.8848C142.582 12.123 142.865 11.2344 143.178 10.2188C143.51 9.20312 143.881 8.02148 144.291 6.67383H146.84C146.918 8.00195 147.006 9.16406 147.104 10.1602C147.201 11.1562 147.299 12.0254 147.396 12.7676C147.494 13.4902 147.582 14.1055 147.66 14.6133C147.758 15.1016 147.855 15.502 147.953 15.8145C148.168 16.5566 148.383 16.957 148.598 17.0156C148.773 16.9766 148.959 16.752 149.154 16.3418C149.369 15.9316 149.564 15.4238 149.74 14.8184C149.936 14.2129 150.111 13.5586 150.268 12.8555C150.424 12.1328 150.561 11.459 150.678 10.834C150.795 10.209 150.873 9.66211 150.912 9.19336C150.951 8.72461 150.951 8.43164 150.912 8.31445C150.854 8.19727 150.736 8.03125 150.561 7.81641C150.404 7.64062 150.189 7.42578 149.916 7.17188C149.662 6.91797 149.311 6.61523 148.861 6.26367C149.408 6.36133 149.926 6.42969 150.414 6.46875C150.922 6.48828 151.371 6.50781 151.762 6.52734C152.211 6.54688 152.621 6.54688 152.992 6.52734C153.383 6.52734 153.861 6.51758 154.428 6.49805C154.916 6.47852 155.521 6.46875 156.244 6.46875C156.986 6.46875 157.855 6.44922 158.852 6.41016C157.973 6.68359 157.27 6.94727 156.742 7.20117C156.234 7.43555 155.844 7.66016 155.57 7.875C155.238 8.10938 155.004 8.33398 154.867 8.54883C154.73 8.8418 154.516 9.45703 154.223 10.3945C154.105 10.7852 153.959 11.2734 153.783 11.8594C153.607 12.4258 153.402 13.0996 153.168 13.8809C152.934 14.6621 152.67 15.5703 152.377 16.6055C152.084 17.6211 151.752 18.7832 151.381 20.0918C151.166 20.0527 150.941 20.0332 150.707 20.0332C150.492 20.0137 150.287 20.0039 150.092 20.0039H149.418C149.184 20.0234 148.93 20.043 148.656 20.0625C148.422 20.082 148.148 20.1113 147.836 20.1504C147.523 20.1895 147.182 20.2383 146.811 20.2969L145.053 13.1777L142.182 20.2969L138.9 20.209C138.49 18.002 138.158 16.2441 137.904 14.9355C137.67 13.6074 137.475 12.5918 137.318 11.8887C137.143 11.0684 137.025 10.4922 136.967 10.1602C136.869 9.80859 136.723 9.4668 136.527 9.13477C136.371 8.86133 136.146 8.57812 135.854 8.28516C135.561 7.97266 135.199 7.70898 134.77 7.49414ZM160.814 0.199219C161.654 0.277344 162.396 0.335937 163.041 0.375C163.686 0.414063 164.223 0.453125 164.652 0.492188C165.16 0.53125 165.59 0.560547 165.941 0.580078C166.293 0.599609 166.723 0.609375 167.23 0.609375C167.66 0.628906 168.197 0.638672 168.842 0.638672C169.486 0.638672 170.248 0.638672 171.127 0.638672C170.561 0.912109 170.121 1.16602 169.809 1.40039C169.516 1.63477 169.291 1.83984 169.135 2.01562C168.939 2.23047 168.822 2.42578 168.783 2.60156C168.764 2.75781 168.803 3.02148 168.9 3.39258C168.998 3.76367 169.135 4.18359 169.311 4.65234C169.486 5.10156 169.701 5.58008 169.955 6.08789C170.209 6.5957 170.473 7.05469 170.746 7.46484C171.039 7.85547 171.332 8.17773 171.625 8.43164C171.918 8.68555 172.201 8.80273 172.475 8.7832C172.748 8.76367 173.08 8.63672 173.471 8.40234C173.861 8.14844 174.262 7.83594 174.672 7.46484C175.102 7.09375 175.521 6.69336 175.932 6.26367C176.342 5.83398 176.703 5.41406 177.016 5.00391C177.348 4.59375 177.611 4.22266 177.807 3.89062C178.021 3.53906 178.129 3.28516 178.129 3.12891C178.109 2.93359 178.031 2.70898 177.895 2.45508C177.777 2.24023 177.582 1.98633 177.309 1.69336C177.035 1.38086 176.654 1.0293 176.166 0.638672C177.768 0.697266 178.939 0.726562 179.682 0.726562H180.766H181.996C182.445 0.726562 183.041 0.726562 183.783 0.726562C184.525 0.707031 185.453 0.677734 186.566 0.638672C185.805 1.14648 185.141 1.60547 184.574 2.01562C184.027 2.40625 183.559 2.73828 183.168 3.01172C182.719 3.34375 182.348 3.63672 182.055 3.89062C181.723 4.16406 181.264 4.59375 180.678 5.17969C180.17 5.6875 179.496 6.37109 178.656 7.23047C177.816 8.07031 176.762 9.16406 175.492 10.5117C175.316 11.9375 175.199 13.0898 175.141 13.9688C175.102 14.8477 175.082 15.541 175.082 16.0488C175.082 16.6348 175.121 17.0742 175.199 17.3672C175.297 17.6016 175.463 17.875 175.697 18.1875C175.893 18.4609 176.166 18.7832 176.518 19.1543C176.889 19.5254 177.377 19.9355 177.982 20.3848C177.338 20.2285 176.732 20.1113 176.166 20.0332C175.619 19.9551 175.131 19.8965 174.701 19.8574C174.193 19.7988 173.734 19.7695 173.324 19.7695C172.895 19.7695 172.387 19.7891 171.801 19.8281C171.293 19.8672 170.688 19.916 169.984 19.9746C169.281 20.0332 168.461 20.1211 167.523 20.2383C168.012 19.9062 168.412 19.5742 168.725 19.2422C169.037 18.9102 169.281 18.6074 169.457 18.334C169.672 18.0215 169.828 17.7285 169.926 17.4551C170.004 17.1426 170.062 16.6934 170.102 16.1074C170.141 15.5996 170.141 14.9258 170.102 14.0859C170.082 13.2461 170.023 12.1816 169.926 10.8926C168.754 9.01758 167.797 7.54297 167.055 6.46875C166.312 5.375 165.736 4.54492 165.326 3.97852C164.838 3.33398 164.486 2.9043 164.271 2.68945C164.076 2.5332 163.812 2.33789 163.48 2.10352C163.207 1.88867 162.855 1.63477 162.426 1.3418C161.977 1.0293 161.439 0.648438 160.814 0.199219ZM188.178 16.2832C188.725 16.2832 189.232 16.2246 189.701 16.1074C190.092 16.0098 190.463 15.8535 190.814 15.6387C191.186 15.4043 191.43 15.0625 191.547 14.6133C191.938 14.6914 192.27 14.7598 192.543 14.8184C192.816 14.8574 193.051 14.8965 193.246 14.9355C193.461 14.9941 193.646 15.0332 193.803 15.0527C193.959 15.0918 194.145 15.1309 194.359 15.1699C194.555 15.209 194.789 15.2578 195.062 15.3164C195.355 15.3555 195.697 15.4141 196.088 15.4922C195.795 15.4531 195.492 15.4824 195.18 15.5801C194.887 15.6777 194.604 15.7852 194.33 15.9023C194.018 16.0391 193.725 16.2051 193.451 16.4004C193.275 16.5176 193.07 16.6934 192.836 16.9277C192.621 17.1621 192.309 17.3867 191.898 17.6016C191.488 17.8164 190.941 18.002 190.258 18.1582C189.594 18.2949 188.734 18.3438 187.68 18.3047C186.41 18.2656 185.346 18.041 184.486 17.6309C183.627 17.2012 182.934 16.6836 182.406 16.0781C181.879 15.4531 181.498 14.7793 181.264 14.0566C181.029 13.334 180.902 12.6602 180.883 12.0352C180.863 11.4102 181.049 10.7559 181.439 10.0723C181.83 9.38867 182.377 8.76367 183.08 8.19727C183.803 7.63086 184.672 7.17188 185.688 6.82031C186.703 6.44922 187.816 6.26367 189.027 6.26367C189.73 6.26367 190.375 6.35156 190.961 6.52734C191.566 6.68359 192.113 6.89844 192.602 7.17188C193.109 7.44531 193.549 7.75781 193.92 8.10938C194.291 8.44141 194.604 8.7832 194.857 9.13477C195.111 9.50586 195.326 9.89648 195.502 10.3066C195.658 10.6582 195.785 11.0586 195.883 11.5078C195.98 11.957 196.01 12.416 195.971 12.8848C194.486 12.9238 193.285 12.9531 192.367 12.9727C191.469 12.9922 190.766 13.002 190.258 13.002H188.939H187.943C187.592 13.002 187.133 13.0117 186.566 13.0312C186 13.0508 185.307 13.0801 184.486 13.1191C184.584 13.9004 184.828 14.5059 185.219 14.9355C185.629 15.3457 186.059 15.6582 186.508 15.873C187.016 16.1074 187.572 16.2441 188.178 16.2832ZM185.541 11.0098C186.166 11.0488 186.684 11.0781 187.094 11.0977C187.523 11.1172 187.875 11.1367 188.148 11.1562C188.441 11.1758 188.676 11.1855 188.852 11.1855H189.584C190.072 11.1855 190.98 11.1562 192.309 11.0977C192.25 10.2383 192.064 9.58398 191.752 9.13477C191.459 8.68555 191.146 8.35352 190.814 8.13867C190.424 7.9043 189.994 7.76758 189.525 7.72852C188.256 7.74805 187.309 8.01172 186.684 8.51953C186.078 9.02734 185.697 9.85742 185.541 11.0098ZM199.34 9.13477C199.438 9.01758 199.496 8.80273 199.516 8.49023C199.555 8.1582 199.633 7.78711 199.75 7.37695C199.887 6.9668 200.111 6.53711 200.424 6.08789C200.736 5.63867 201.244 5.21875 201.947 4.82812C202.631 4.4375 203.295 4.20312 203.939 4.125C204.584 4.04688 205.199 4.07617 205.785 4.21289C206.371 4.34961 206.918 4.56445 207.426 4.85742C207.953 5.15039 208.432 5.47266 208.861 5.82422C209.154 6.05859 209.389 6.40039 209.564 6.84961C209.74 7.2793 209.877 7.76758 209.975 8.31445C210.072 8.86133 210.141 9.4375 210.18 10.043C210.238 10.6289 210.277 11.2051 210.297 11.7715C210.316 12.3184 210.326 12.8262 210.326 13.2949C210.346 13.7441 210.385 14.1152 210.443 14.4082C210.521 14.8379 210.658 15.209 210.854 15.5215C211.049 15.8145 211.264 16.0684 211.498 16.2832C211.732 16.4785 211.967 16.6348 212.201 16.752C212.436 16.8691 212.641 16.957 212.816 17.0156C212.934 17.0742 213.041 17.1133 213.139 17.1328C213.334 17.2109 213.471 17.2109 213.549 17.1328C213.432 17.4062 213.324 17.6406 213.227 17.8359C213.129 18.0312 213.051 18.1973 212.992 18.334C212.914 18.4902 212.846 18.6172 212.787 18.7148C212.729 18.832 212.66 18.9395 212.582 19.0371C212.523 19.1348 212.445 19.2422 212.348 19.3594C212.25 19.4766 212.152 19.6035 212.055 19.7402C211.801 19.6426 211.557 19.5254 211.322 19.3887C211.107 19.252 210.912 19.125 210.736 19.0078C210.521 18.8711 210.326 18.7344 210.15 18.5977C209.975 18.4609 209.809 18.3047 209.652 18.1289C209.516 17.9727 209.369 17.8066 209.213 17.6309C209.076 17.4551 208.959 17.2598 208.861 17.0449C208.744 17.2988 208.461 17.6602 208.012 18.1289C207.582 18.5977 207.016 19.0273 206.312 19.418C205.609 19.7891 204.789 20.0527 203.852 20.209C202.934 20.3652 201.918 20.2578 200.805 19.8867C200.316 19.7305 199.857 19.5059 199.428 19.2129C198.998 18.9004 198.627 18.5293 198.314 18.0996C198.021 17.6699 197.807 17.1816 197.67 16.6348C197.553 16.0684 197.562 15.4434 197.699 14.7598C197.836 14.0762 198.08 13.5 198.432 13.0312C198.783 12.5625 199.203 12.1816 199.691 11.8887C200.18 11.5957 200.727 11.3711 201.332 11.2148C201.938 11.0586 202.562 10.9512 203.207 10.8926C203.715 10.873 204.223 10.9023 204.73 10.9805C205.16 11.0586 205.609 11.2051 206.078 11.4199C206.547 11.6152 206.947 11.918 207.279 12.3281C207.26 11.293 207.221 10.4727 207.162 9.86719C207.123 9.24219 207.084 8.76367 207.045 8.43164C206.967 8.04102 206.898 7.76758 206.84 7.61133C206.742 7.47461 206.635 7.31836 206.518 7.14258C206.42 6.9668 206.293 6.81055 206.137 6.67383C205.98 6.51758 205.785 6.39062 205.551 6.29297C205.316 6.19531 205.043 6.15625 204.73 6.17578C204.398 6.19531 204.135 6.2832 203.939 6.43945C203.744 6.5957 203.588 6.78125 203.471 6.99609C203.373 7.19141 203.314 7.40625 203.295 7.64062C203.275 7.875 203.285 8.08008 203.324 8.25586C203.363 8.37305 203.422 8.5 203.5 8.63672C203.578 8.75391 203.686 8.88086 203.822 9.01758C203.959 9.1543 204.145 9.27148 204.379 9.36914C203.93 9.42773 203.529 9.47656 203.178 9.51562C202.826 9.53516 202.523 9.56445 202.27 9.60352C201.977 9.64258 201.723 9.67188 201.508 9.69141C201.293 9.71094 201.039 9.75 200.746 9.80859C200.492 9.84766 200.18 9.89648 199.809 9.95508C199.438 10.0137 199.008 10.0918 198.52 10.1895C198.637 10.0527 198.744 9.92578 198.842 9.80859C198.939 9.67188 199.027 9.55469 199.105 9.45703C199.184 9.33984 199.262 9.23242 199.34 9.13477ZM203.734 12.6211C203.383 12.6406 203.031 12.7285 202.68 12.8848C202.328 13.0215 202.016 13.2266 201.742 13.5C201.469 13.7539 201.234 14.0566 201.039 14.4082C200.863 14.7402 200.775 15.1113 200.775 15.5215C200.775 15.9316 200.873 16.293 201.068 16.6055C201.283 16.8984 201.557 17.1426 201.889 17.3379C202.24 17.5332 202.611 17.6504 203.002 17.6895C203.412 17.7285 203.812 17.6895 204.203 17.5723C204.574 17.4355 204.926 17.2207 205.258 16.9277C205.59 16.6152 205.873 16.2832 206.107 15.9316C206.342 15.5605 206.508 15.1992 206.605 14.8477C206.703 14.4766 206.713 14.1738 206.635 13.9395C206.479 13.4316 206.127 13.0801 205.58 12.8848C205.033 12.6699 204.418 12.582 203.734 12.6211ZM212.963 6.9668C213.334 6.98633 213.666 6.99609 213.959 6.99609C214.271 6.97656 214.535 6.95703 214.75 6.9375C215.004 6.91797 215.229 6.89844 215.424 6.87891C215.717 6.83984 216.02 6.79102 216.332 6.73242C216.605 6.69336 216.889 6.64453 217.182 6.58594C217.494 6.50781 217.797 6.41992 218.09 6.32227C217.973 6.61523 217.875 6.86914 217.797 7.08398C217.719 7.29883 217.66 7.48438 217.621 7.64062C217.562 7.81641 217.533 7.96289 217.533 8.08008C217.514 8.2168 217.504 8.38281 217.504 8.57812C217.484 8.91016 217.484 9.44727 217.504 10.1895C218.52 9.31055 219.369 8.62695 220.053 8.13867C220.756 7.65039 221.312 7.26953 221.723 6.99609C222.211 6.68359 222.592 6.47852 222.865 6.38086C223.588 6.26367 224.223 6.42969 224.77 6.87891C225.004 7.07422 225.229 7.33789 225.443 7.66992C225.658 7.98242 225.844 8.40234 226 8.92969C226.156 9.45703 226.273 10.0918 226.352 10.834C226.43 11.5566 226.439 12.4258 226.381 13.4414C225.971 13.4805 225.6 13.5195 225.268 13.5586C224.955 13.5977 224.691 13.627 224.477 13.6465C224.223 13.6855 223.988 13.7051 223.773 13.7051L222.982 13.793C222.709 13.832 222.367 13.8711 221.957 13.9102C221.566 13.9297 221.088 13.9688 220.521 14.0273C221.342 13.3633 221.869 12.7871 222.104 12.2988C222.357 11.791 222.465 11.3711 222.426 11.0391C222.387 10.668 222.211 10.3457 221.898 10.0723C221.527 9.85742 221.127 9.7793 220.697 9.83789C220.326 9.87695 219.896 10.043 219.408 10.3359C218.92 10.6289 218.402 11.1758 217.855 11.9766C217.895 13.2266 217.934 14.2617 217.973 15.082C218.031 15.9023 218.08 16.5664 218.119 17.0742C218.178 17.6602 218.227 18.1191 218.266 18.4512C218.324 18.7441 218.441 19.0566 218.617 19.3887C218.754 19.6621 218.949 19.9648 219.203 20.2969C219.457 20.6289 219.789 20.9609 220.199 21.293C219.34 21.2539 218.637 21.2539 218.09 21.293C217.758 21.3125 217.465 21.332 217.211 21.3516C216.938 21.3906 216.645 21.4297 216.332 21.4688C216.059 21.5078 215.736 21.5469 215.365 21.5859C215.014 21.6445 214.623 21.7031 214.193 21.7617C214.35 21.5469 214.477 21.293 214.574 21C214.672 20.7266 214.75 20.4629 214.809 20.209C214.887 19.916 214.945 19.6133 214.984 19.3008C215.004 19.0273 215.014 18.6172 215.014 18.0703C215.033 17.5234 215.023 16.9082 214.984 16.2246C214.965 15.5215 214.936 14.7988 214.896 14.0566C214.857 13.2949 214.809 12.582 214.75 11.918C214.691 11.2539 214.623 10.6777 214.545 10.1895C214.486 9.68164 214.418 9.33008 214.34 9.13477C214.242 8.90039 214.125 8.66602 213.988 8.43164C213.871 8.2168 213.725 7.99219 213.549 7.75781C213.373 7.50391 213.178 7.24023 212.963 6.9668Z" fill="black"/>
</svg>
