<svg width="115" height="25" viewBox="0 0 115 25" fill="none" xmlns="http://www.w3.org/2000/svg">
<path d="M0.585938 1.75977C1.15234 1.85742 1.65039 1.92578 2.08008 1.96484C2.5293 2.00391 2.90039 2.0332 3.19336 2.05273C3.54492 2.07227 3.84766 2.08203 4.10156 2.08203C4.35547 2.08203 4.7168 2.0625 5.18555 2.02344C5.57617 1.98437 6.08398 1.93555 6.70898 1.87695C7.35352 1.81836 8.14453 1.7207 9.08203 1.58398C8.80859 1.66211 8.55469 1.88672 8.32031 2.25781C8.10547 2.60938 7.91016 2.99023 7.73438 3.40039C7.51953 3.88867 7.33398 4.42578 7.17773 5.01172C7.04102 5.53906 6.86523 6.26172 6.65039 7.17969C6.45508 8.09766 6.25977 9.09375 6.06445 10.168C5.88867 11.2422 5.75195 12.3359 5.6543 13.4492C5.55664 14.543 5.53711 15.5488 5.5957 16.4668C5.67383 17.3848 5.85938 18.1465 6.15234 18.752C6.44531 19.3379 6.89453 19.6504 7.5 19.6895C8.41797 19.7676 9.17969 19.7773 9.78516 19.7188C10.4102 19.6406 10.918 19.5332 11.3086 19.3965C11.6992 19.2598 12.002 19.1035 12.2168 18.9277C12.4316 18.7324 12.5977 18.5469 12.7148 18.3711C13.0273 17.9219 13.3496 17.3457 13.6816 16.6426C14.0137 15.9395 14.3066 15.2656 14.5605 14.6211C14.834 13.9766 15.0586 13.4297 15.2344 12.9805C15.4102 12.5312 15.498 12.3164 15.498 12.3359C15.498 12.375 15.4883 12.5996 15.4688 13.0098C15.4688 13.4004 15.459 13.8789 15.4395 14.4453C15.4395 14.9922 15.4297 15.5684 15.4102 16.1738C15.4102 16.7793 15.4004 17.2969 15.3809 17.7266C15.3613 18.0781 15.3418 18.4688 15.3223 18.8984C15.3027 19.2695 15.2832 19.709 15.2637 20.2168C15.2637 20.7246 15.2441 21.2812 15.2051 21.8867C14.3848 21.8281 13.6035 21.7891 12.8613 21.7695C12.1191 21.75 11.4648 21.7402 10.8984 21.7402C10.2344 21.7402 9.61914 21.75 9.05273 21.7695C8.44727 21.7891 7.74414 21.8184 6.94336 21.8574C6.25977 21.8965 5.41016 21.9453 4.39453 22.0039C3.37891 22.043 2.20703 22.1016 0.878906 22.1797C1.03516 21.9062 1.16211 21.6523 1.25977 21.418C1.37695 21.1836 1.46484 20.9883 1.52344 20.832C1.60156 20.6367 1.65039 20.4707 1.66992 20.334C1.78711 19.709 1.88477 18.918 1.96289 17.9609C2.04102 16.9844 2.09961 15.9492 2.13867 14.8555C2.19727 13.7617 2.22656 12.6484 2.22656 11.5156C2.24609 10.3633 2.24609 9.29883 2.22656 8.32227C2.20703 7.3457 2.16797 6.49609 2.10938 5.77344C2.07031 5.05078 2.01172 4.55273 1.93359 4.2793C1.83594 3.9668 1.71875 3.6543 1.58203 3.3418C1.46484 3.06836 1.31836 2.79492 1.14258 2.52148C0.986328 2.22852 0.800781 1.97461 0.585938 1.75977ZM17.2852 9.52344C17.793 9.62109 18.2324 9.69922 18.6035 9.75781C18.9941 9.79688 19.3262 9.83594 19.5996 9.875C19.9121 9.91406 20.1855 9.94336 20.4199 9.96289C20.6543 9.98242 20.9277 10.002 21.2402 10.0215C21.7676 10.041 22.5098 10.041 23.4668 10.0215C22.9004 9.98242 22.4512 10.1289 22.1191 10.4609C21.8066 10.7734 21.5723 11.1348 21.416 11.5449C21.2207 12.0332 21.1133 12.5996 21.0938 13.2441C21.0547 14.1035 21.0742 14.8848 21.1523 15.5879C21.25 16.2715 21.416 16.8574 21.6504 17.3457C21.9043 17.8145 22.2363 18.166 22.6465 18.4004C23.0566 18.6152 23.584 18.6738 24.2285 18.5762C24.873 18.4785 25.3613 18.2539 25.6934 17.9023C26.0449 17.5312 26.2988 17.082 26.4551 16.5547C26.6113 16.0078 26.6992 15.3926 26.7188 14.709C26.7578 14.0254 26.7871 13.3125 26.8066 12.5703C26.8066 11.8281 26.7969 11.3008 26.7773 10.9883C26.7773 10.6562 26.7676 10.4414 26.748 10.3438C26.7285 10.2461 26.6992 10.207 26.6602 10.2266C26.6211 10.2266 26.5723 10.1777 26.5137 10.0801C26.4746 10.002 26.416 9.92383 26.3379 9.8457C26.2793 9.76758 26.2012 9.67969 26.1035 9.58203C26.0059 9.46484 25.8984 9.34766 25.7812 9.23047C26.2891 9.25 26.7383 9.26953 27.1289 9.28906C27.5391 9.28906 27.8809 9.29883 28.1543 9.31836C28.4668 9.33789 28.7402 9.35742 28.9746 9.37695C29.1895 9.39648 29.4727 9.42578 29.8242 9.46484C30.1172 9.50391 30.498 9.54297 30.9668 9.58203C31.4355 9.62109 31.9922 9.67969 32.6367 9.75781C32.1875 9.85547 31.8262 10.002 31.5527 10.1973C31.2793 10.3926 31.0645 10.5879 30.9082 10.7832C30.7324 10.998 30.6055 11.2324 30.5273 11.4863C30.4688 11.8184 30.4688 12.3262 30.5273 13.0098C30.5664 13.6152 30.6641 14.4453 30.8203 15.5C30.9766 16.5547 31.2207 17.9414 31.5527 19.6602L29.2383 21.0371L28.7695 17.1406C28.2031 18.0977 27.5977 18.8398 26.9531 19.3672C26.3281 19.875 25.7422 20.2461 25.1953 20.4805C24.5508 20.7539 23.9258 20.9102 23.3203 20.9492C22.5195 20.9492 21.8262 20.9004 21.2402 20.8027C20.6738 20.6855 20.1855 20.5391 19.7754 20.3633C19.3652 20.1875 19.0332 19.9922 18.7793 19.7773C18.5449 19.543 18.3691 19.3086 18.252 19.0742C17.9785 18.5859 17.832 17.9609 17.8125 17.1992C17.793 16.418 17.8223 15.6465 17.9004 14.8848C17.9785 14.1035 18.0664 13.3906 18.1641 12.7461C18.2617 12.1016 18.291 11.6621 18.252 11.4277C18.2129 11.252 18.1543 11.0566 18.0762 10.8418C17.998 10.666 17.9004 10.4707 17.7832 10.2559C17.666 10.0215 17.5 9.77734 17.2852 9.52344ZM32.9297 9.11328C33.3789 9.07422 33.7598 9.03516 34.0723 8.99609C34.4043 8.95703 34.6777 8.91797 34.8926 8.87891C35.1465 8.83984 35.3613 8.80078 35.5371 8.76172C35.7129 8.74219 35.9082 8.70312 36.123 8.64453C36.3184 8.60547 36.5332 8.55664 36.7676 8.49805C37.0215 8.41992 37.2949 8.33203 37.5879 8.23438L37.4121 11.9551C37.8418 11.2715 38.3398 10.7539 38.9062 10.4023C39.4727 10.0312 40.0098 9.75781 40.5176 9.58203C41.123 9.36719 41.7285 9.24023 42.334 9.20117C42.959 9.2207 43.5352 9.31836 44.0625 9.49414C44.5117 9.65039 44.9609 9.89453 45.4102 10.2266C45.8789 10.5586 46.2402 11.0469 46.4941 11.6914C47.1582 11.0078 47.8125 10.4805 48.457 10.1094C49.1211 9.71875 49.707 9.42578 50.2148 9.23047C50.8203 9.01562 51.3867 8.88867 51.9141 8.84961C52.6172 8.83008 53.2617 8.94727 53.8477 9.20117C54.4531 9.45508 54.9805 9.77734 55.4297 10.168C55.8789 10.5391 56.2402 10.9395 56.5137 11.3691C56.7871 11.7793 56.9434 12.1406 56.9824 12.4531C57.041 12.8828 57.0117 13.4395 56.8945 14.123C56.7773 14.7871 56.6406 15.4707 56.4844 16.1738C56.3281 16.8574 56.1816 17.4922 56.0449 18.0781C55.9277 18.6445 55.8789 19.0449 55.8984 19.2793C55.957 19.4746 56.0938 19.709 56.3086 19.9824C56.5039 20.2168 56.7871 20.5098 57.1582 20.8613C57.5488 21.1934 58.1055 21.584 58.8281 22.0332C58.2031 22.0137 57.6465 21.9941 57.1582 21.9746C56.6895 21.9551 56.2891 21.9258 55.957 21.8867C55.5664 21.8477 55.2246 21.8184 54.9316 21.7988C54.6973 21.7988 54.4141 21.7793 54.082 21.7402C53.8086 21.7207 53.4473 21.6914 52.998 21.6523C52.5684 21.6133 52.0703 21.5742 51.5039 21.5352C51.7188 21.4766 51.8945 21.3691 52.0312 21.2129C52.168 21.0371 52.2852 20.8711 52.3828 20.7148C52.4805 20.5195 52.5586 20.3047 52.6172 20.0703C52.6562 19.875 52.6953 19.5625 52.7344 19.1328C52.7734 18.7031 52.8027 18.2148 52.8223 17.668C52.8613 17.1211 52.8809 16.5449 52.8809 15.9395C52.9004 15.334 52.9004 14.7578 52.8809 14.2109C52.8613 13.6641 52.8223 13.166 52.7637 12.7168C52.7051 12.2676 52.627 11.9258 52.5293 11.6914C52.4512 11.5156 52.3145 11.3789 52.1191 11.2812C51.9238 11.1641 51.6992 11.0957 51.4453 11.0762C51.1914 11.0371 50.9375 11.0469 50.6836 11.1055C50.4297 11.1445 50.2051 11.2227 50.0098 11.3398C49.834 11.4766 49.5996 11.6621 49.3066 11.8965C49.0527 12.1113 48.7207 12.4043 48.3105 12.7754C47.9004 13.1465 47.3828 13.6152 46.7578 14.1816C46.6992 15.4121 46.6504 16.4082 46.6113 17.1699C46.5918 17.9121 46.5723 18.4785 46.5527 18.8691C46.5332 19.3379 46.5234 19.6602 46.5234 19.8359C46.5039 19.9922 46.5137 20.1387 46.5527 20.2754C46.5918 20.5684 46.709 20.8418 46.9043 21.0957C46.6699 21.0371 46.416 20.998 46.1426 20.9785C45.8887 20.959 45.6543 20.9395 45.4395 20.9199C45.1855 20.9004 44.9316 20.8906 44.6777 20.8906C44.4629 20.8906 44.2285 20.9004 43.9746 20.9199C43.7598 20.9395 43.4961 20.9688 43.1836 21.0078C42.8711 21.0273 42.5293 21.0566 42.1582 21.0957C42.3145 20.998 42.4414 20.8809 42.5391 20.7441C42.6367 20.6074 42.7148 20.4805 42.7734 20.3633C42.8516 20.2266 42.9102 20.0996 42.9492 19.9824C42.9688 19.8652 43.0078 19.582 43.0664 19.1328C43.125 18.6641 43.1641 18.1172 43.1836 17.4922C43.2031 16.8672 43.2031 16.2129 43.1836 15.5293C43.1641 14.8262 43.0957 14.1914 42.9785 13.625C42.8613 13.0391 42.6758 12.5605 42.4219 12.1895C42.1875 11.8184 41.875 11.6523 41.4844 11.6914C41.0156 11.7305 40.5371 11.8477 40.0488 12.043C39.6387 12.1992 39.1992 12.4336 38.7305 12.7461C38.2617 13.0586 37.8223 13.4785 37.4121 14.0059C37.334 15.4707 37.2852 16.6328 37.2656 17.4922C37.2656 18.3516 37.2754 19.0059 37.2949 19.4551C37.3145 19.9824 37.334 20.3438 37.3535 20.5391C37.373 20.6758 37.4219 20.8125 37.5 20.9492C37.5586 21.0664 37.627 21.2031 37.7051 21.3594C37.8027 21.5156 37.9102 21.6621 38.0273 21.7988L33.3691 21.5645C33.5254 21.4863 33.6621 21.3887 33.7793 21.2715C33.8965 21.1348 33.9941 20.998 34.0723 20.8613C34.1504 20.7051 34.2285 20.5488 34.3066 20.3926C34.3652 20.2559 34.4141 19.9336 34.4531 19.4258C34.5117 18.918 34.5605 18.3223 34.5996 17.6387C34.6387 16.9355 34.668 16.2031 34.6875 15.4414C34.7266 14.6602 34.7461 13.9375 34.7461 13.2734C34.7656 12.5898 34.7754 12.0137 34.7754 11.5449C34.7754 11.0566 34.7656 10.7637 34.7461 10.666C34.6875 10.4707 34.5801 10.2656 34.4238 10.0508C34.2871 9.89453 34.1016 9.72852 33.8672 9.55273C33.6328 9.35742 33.3203 9.21094 32.9297 9.11328ZM58.9746 9.9043L64.3652 9.96289C64.0527 11.1543 63.8184 12.1699 63.6621 13.0098C63.5254 13.8496 63.4375 14.5527 63.3984 15.1191C63.3203 15.7637 63.3008 16.3105 63.3398 16.7598C63.3984 17.1699 63.4961 17.6094 63.6328 18.0781C63.75 18.4688 63.9258 18.918 64.1602 19.4258C64.3945 19.9336 64.707 20.4414 65.0977 20.9492C64.8633 20.8711 64.6094 20.8125 64.3359 20.7734C64.0625 20.7344 63.8086 20.7051 63.5742 20.6855C63.3008 20.666 63.0273 20.666 62.7539 20.6855C62.4805 20.7051 62.1777 20.7344 61.8457 20.7734C61.5723 20.8125 61.2402 20.8613 60.8496 20.9199C60.459 20.9785 60.0488 21.0566 59.6191 21.1543C59.9121 20.2754 60.1367 19.5137 60.293 18.8691C60.4688 18.2246 60.5957 17.6875 60.6738 17.2578C60.752 16.75 60.8008 16.3398 60.8203 16.0273C60.8203 15.6367 60.8203 15.1973 60.8203 14.709C60.8203 14.2012 60.8203 13.7129 60.8203 13.2441C60.8203 12.7754 60.8105 12.3652 60.791 12.0137C60.7715 11.6426 60.7324 11.4082 60.6738 11.3105L60.3809 11.0176C60.2637 10.9199 60.0879 10.7832 59.8535 10.6074C59.6387 10.4121 59.3457 10.1777 58.9746 9.9043ZM61.0547 5.39258C61.4648 5.17773 61.875 5.11914 62.2852 5.2168C62.7148 5.31445 63.0469 5.5 63.2812 5.77344C63.5156 6.04688 63.5938 6.36914 63.5156 6.74023C63.457 7.11133 63.1445 7.47266 62.5781 7.82422C62.0117 8.15625 61.5137 8.27344 61.084 8.17578C60.6543 8.07812 60.3516 7.87305 60.1758 7.56055C60 7.24805 59.9707 6.88672 60.0879 6.47656C60.2051 6.04688 60.5273 5.68555 61.0547 5.39258ZM77.168 1.84766C78.418 1.82813 79.4434 2.05273 80.2441 2.52148C81.0645 2.99023 81.7285 3.54688 82.2363 4.19141C82.7441 4.83594 83.1348 5.49023 83.4082 6.1543C83.6816 6.79883 83.8965 7.30664 84.0527 7.67773C84.0918 7.77539 84.1699 7.90234 84.2871 8.05859C84.3848 8.19531 84.5215 8.36133 84.6973 8.55664C84.8926 8.73242 85.1367 8.9375 85.4297 9.17188C84.8242 9.19141 84.2871 9.21094 83.8184 9.23047C83.3496 9.23047 82.9492 9.24023 82.6172 9.25977C82.2461 9.2793 81.9141 9.29883 81.6211 9.31836C81.3281 9.33789 80.9668 9.36719 80.5371 9.40625C80.1465 9.44531 79.668 9.48438 79.1016 9.52344C78.5352 9.5625 77.8418 9.62109 77.0215 9.69922C77.5098 9.11328 77.8906 8.5957 78.1641 8.14648C78.457 7.67773 78.6719 7.26758 78.8086 6.91602C78.9648 6.54492 79.0527 6.22266 79.0723 5.94922C79.1113 5.67578 79.1016 5.44141 79.043 5.24609C78.9258 4.79687 78.623 4.47461 78.1348 4.2793C76.7285 3.88867 75.498 4.20117 74.4434 5.2168C73.4082 6.21289 72.666 7.85352 72.2168 10.1387C72.002 11.2715 71.7969 12.4531 71.6016 13.6836C71.4258 14.8945 71.3574 16.0078 71.3965 17.0234C71.4355 18.0195 71.6309 18.8301 71.9824 19.4551C72.334 20.0801 72.9395 20.373 73.7988 20.334C74.6387 20.2949 75.3516 20.1582 75.9375 19.9238C76.5234 19.6699 76.9922 19.377 77.3438 19.0449C77.6953 18.6934 77.9395 18.3223 78.0762 17.9316C78.2324 17.5215 78.291 17.1406 78.252 16.7891C78.1738 16.5156 77.9688 16.2227 77.6367 15.9102C77.3438 15.6367 76.9043 15.334 76.3184 15.002C75.7324 14.6504 74.8926 14.2891 73.7988 13.918C74.834 13.8594 75.6836 13.8203 76.3477 13.8008C77.0312 13.7617 77.5684 13.7227 77.959 13.6836C78.4277 13.6445 78.7891 13.6152 79.043 13.5957C79.2773 13.5762 79.6191 13.5566 80.0684 13.5371C80.459 13.5176 80.957 13.5078 81.5625 13.5078C82.1875 13.5078 82.9688 13.498 83.9062 13.4785C83.5547 13.8301 83.2812 14.1523 83.0859 14.4453C82.9883 14.6016 82.9004 14.7383 82.8223 14.8555C82.7441 15.0508 82.7148 15.4512 82.7344 16.0566C82.7344 16.5645 82.7734 17.3164 82.8516 18.3125C82.9297 19.2891 83.0762 20.627 83.291 22.3262L79.3945 22.8535L79.5703 18.8984C79.1211 19.9727 78.5547 20.7734 77.8711 21.3008C77.207 21.8281 76.5723 22.1992 75.9668 22.4141C75.2441 22.668 74.4922 22.7852 73.7109 22.7656C72.6953 22.668 71.6797 22.4336 70.6641 22.0625C69.6484 21.6914 68.75 21.125 67.9688 20.3633C67.1875 19.582 66.582 18.5762 66.1523 17.3457C65.7422 16.1152 65.6152 14.5918 65.7715 12.7754C65.9473 10.959 66.377 9.37695 67.0605 8.0293C67.7637 6.66211 68.6328 5.5293 69.668 4.63086C70.7031 3.73242 71.8652 3.05859 73.1543 2.60938C74.4629 2.14062 75.8008 1.88672 77.168 1.84766ZM85.4297 9.9043L90.8203 9.96289C90.5078 11.1543 90.2734 12.1699 90.1172 13.0098C89.9805 13.8496 89.8926 14.5527 89.8535 15.1191C89.7754 15.7637 89.7559 16.3105 89.7949 16.7598C89.8535 17.1699 89.9512 17.6094 90.0879 18.0781C90.2051 18.4688 90.3809 18.918 90.6152 19.4258C90.8496 19.9336 91.1621 20.4414 91.5527 20.9492C91.3184 20.8711 91.0645 20.8125 90.791 20.7734C90.5176 20.7344 90.2637 20.7051 90.0293 20.6855C89.7559 20.666 89.4824 20.666 89.209 20.6855C88.9355 20.7051 88.6328 20.7344 88.3008 20.7734C88.0273 20.8125 87.6953 20.8613 87.3047 20.9199C86.9141 20.9785 86.5039 21.0566 86.0742 21.1543C86.3672 20.2754 86.5918 19.5137 86.748 18.8691C86.9238 18.2246 87.0508 17.6875 87.1289 17.2578C87.207 16.75 87.2559 16.3398 87.2754 16.0273C87.2754 15.6367 87.2754 15.1973 87.2754 14.709C87.2754 14.2012 87.2754 13.7129 87.2754 13.2441C87.2754 12.7754 87.2656 12.3652 87.2461 12.0137C87.2266 11.6426 87.1875 11.4082 87.1289 11.3105L86.8359 11.0176C86.7188 10.9199 86.543 10.7832 86.3086 10.6074C86.0938 10.4121 85.8008 10.1777 85.4297 9.9043ZM87.5098 5.39258C87.9199 5.17773 88.3301 5.11914 88.7402 5.2168C89.1699 5.31445 89.502 5.5 89.7363 5.77344C89.9707 6.04688 90.0488 6.36914 89.9707 6.74023C89.9121 7.11133 89.5996 7.47266 89.0332 7.82422C88.4668 8.15625 87.9688 8.27344 87.5391 8.17578C87.1094 8.07812 86.8066 7.87305 86.6309 7.56055C86.4551 7.24805 86.4258 6.88672 86.543 6.47656C86.6602 6.04688 86.9824 5.68555 87.5098 5.39258ZM93.8965 24.0547C94.2871 23.7812 94.5996 23.4199 94.834 22.9707C95.0684 22.5215 95.2441 22.082 95.3613 21.6523C95.498 21.1445 95.5859 20.6172 95.625 20.0703C95.625 19.7383 95.6055 19.2109 95.5664 18.4883C95.5273 17.8828 95.4688 17.0527 95.3906 15.998C95.3125 14.9238 95.1953 13.5371 95.0391 11.8379C94.8242 11.8574 94.6387 11.877 94.4824 11.8965C94.3262 11.8965 94.1992 11.8965 94.1016 11.8965H93.7793C93.6816 11.8965 93.5645 11.9062 93.4277 11.9258C93.3105 11.9453 93.1543 11.9746 92.959 12.0137C92.7832 12.0527 92.5684 12.1016 92.3145 12.1602C92.3535 12.0039 92.373 11.8477 92.373 11.6914C92.3926 11.5156 92.4121 11.3594 92.4316 11.2227C92.4512 11.0664 92.4609 10.9199 92.4609 10.7832V10.3438C92.4609 10.207 92.4609 10.0605 92.4609 9.9043C92.4805 9.74805 92.5 9.5918 92.5195 9.43555L94.834 9.49414C94.7363 8.6543 94.6973 7.90234 94.7168 7.23828C94.7363 6.55469 94.7656 5.96875 94.8047 5.48047C94.8633 4.91406 94.9414 4.41602 95.0391 3.98633C95.1758 3.45898 95.3613 2.9707 95.5957 2.52148C95.8301 2.07227 96.1523 1.69141 96.5625 1.37891C96.9727 1.06641 97.4805 0.832031 98.0859 0.675781C98.6914 0.5 99.4238 0.412109 100.283 0.412109C101.26 0.431641 102.031 0.558594 102.598 0.792969C103.164 1.00781 103.584 1.29102 103.857 1.64258C104.131 1.97461 104.287 2.35547 104.326 2.78516C104.365 3.21484 104.355 3.63477 104.297 4.04492C104.258 4.43555 104.189 4.79687 104.092 5.12891C104.014 5.46094 103.984 5.70508 104.004 5.86133C104.023 5.97852 104.072 6.13477 104.15 6.33008C104.209 6.48633 104.297 6.68164 104.414 6.91602C104.551 7.15039 104.746 7.41406 105 7.70703C104.688 7.66797 104.375 7.63867 104.062 7.61914C103.75 7.58008 103.457 7.55078 103.184 7.53125C102.871 7.51172 102.568 7.50195 102.275 7.50195C101.982 7.52148 101.68 7.54102 101.367 7.56055C101.094 7.59961 100.801 7.63867 100.488 7.67773C100.176 7.69727 99.8828 7.75586 99.6094 7.85352C100 7.58008 100.303 7.29688 100.518 7.00391C100.732 6.71094 100.898 6.44727 101.016 6.21289C101.152 5.93945 101.24 5.66602 101.279 5.39258C101.299 5.06055 101.279 4.68945 101.221 4.2793C101.182 3.84961 101.094 3.45898 100.957 3.10742C100.82 2.75586 100.654 2.47266 100.459 2.25781C100.264 2.02344 100.029 1.93555 99.7559 1.99414C99.3457 2.15039 98.9648 2.53125 98.6133 3.13672C98.3203 3.64453 98.0371 4.41602 97.7637 5.45117C97.4902 6.4668 97.3145 7.88281 97.2363 9.69922C97.6074 9.73828 97.9492 9.76758 98.2617 9.78711C98.5938 9.78711 98.8867 9.79688 99.1406 9.81641C99.4336 9.83594 99.707 9.8457 99.9609 9.8457C100.215 9.8457 100.498 9.83594 100.811 9.81641C101.084 9.79688 101.406 9.78711 101.777 9.78711C102.148 9.76758 102.559 9.73828 103.008 9.69922L102.949 11.2227C102.598 11.2617 102.256 11.291 101.924 11.3105C101.592 11.3301 101.299 11.3496 101.045 11.3691C100.752 11.3887 100.479 11.4082 100.225 11.4277C99.9512 11.4473 99.668 11.4668 99.375 11.4863C99.1211 11.5059 98.8281 11.5352 98.4961 11.5742C98.1836 11.6133 97.8516 11.6523 97.5 11.6914C97.7734 13.8984 98.0078 15.6855 98.2031 17.0527C98.418 18.4004 98.6035 19.4453 98.7598 20.1875C98.916 21.0664 99.0527 21.6914 99.1699 22.0625C99.2871 22.375 99.4238 22.6484 99.5801 22.8828C99.7168 23.0977 99.8828 23.3027 100.078 23.498C100.273 23.6934 100.498 23.8203 100.752 23.8789C100.127 23.7812 99.5898 23.7031 99.1406 23.6445C98.6914 23.6055 98.3105 23.5762 97.998 23.5566C97.6465 23.5371 97.3438 23.5273 97.0898 23.5273C96.8555 23.5469 96.5723 23.5762 96.2402 23.6152C95.6738 23.6738 94.8926 23.8203 93.8965 24.0547ZM102.539 4.54297C103.125 4.60156 103.613 4.65039 104.004 4.68945C104.414 4.72852 104.746 4.75781 105 4.77734C105.293 4.79687 105.527 4.80664 105.703 4.80664C105.879 4.82617 106.113 4.82617 106.406 4.80664C106.66 4.78711 106.992 4.76758 107.402 4.74805C107.812 4.70898 108.33 4.65039 108.955 4.57227C108.818 4.76758 108.711 4.94336 108.633 5.09961C108.555 5.23633 108.486 5.36328 108.428 5.48047L108.252 5.83203C108.213 5.94922 108.174 6.06641 108.135 6.18359C108.096 6.28125 108.057 6.39844 108.018 6.53516C107.998 6.67187 107.979 6.81836 107.959 6.97461H112.471L112.061 9.34766L107.93 9.11328C107.832 10.1094 107.764 10.8809 107.725 11.4277C107.686 11.9746 107.646 12.375 107.607 12.6289L107.549 13.1562C107.49 13.8984 107.432 14.709 107.373 15.5879C107.314 16.4473 107.295 17.248 107.314 17.9902C107.334 18.7324 107.402 19.3574 107.52 19.8652C107.637 20.3535 107.842 20.5977 108.135 20.5977C108.428 20.5977 108.701 20.5195 108.955 20.3633C109.209 20.207 109.424 20.0215 109.6 19.8066C109.795 19.5918 109.941 19.377 110.039 19.1621C110.137 18.9277 110.186 18.752 110.186 18.6348C110.186 18.5176 110.156 18.3809 110.098 18.2246C110 17.9316 109.824 17.5605 109.57 17.1113C110.137 17.248 110.635 17.3848 111.064 17.5215C111.279 17.5996 111.475 17.6777 111.65 17.7559C111.846 17.834 112.07 17.9219 112.324 18.0195C112.539 18.1172 112.812 18.2344 113.145 18.3711C113.477 18.5078 113.867 18.6738 114.316 18.8691C113.887 18.9473 113.574 19.0742 113.379 19.25C113.262 19.3281 113.174 19.416 113.115 19.5137C112.979 19.7285 112.822 20.0215 112.646 20.3926C112.471 20.7441 112.207 21.0957 111.855 21.4473C111.504 21.7988 111.025 22.1113 110.42 22.3848C109.834 22.6582 109.043 22.8145 108.047 22.8535C107.012 22.8926 106.221 22.7168 105.674 22.3262C105.146 21.9355 104.756 21.4863 104.502 20.9785C104.268 20.4512 104.131 19.9336 104.092 19.4258C104.053 18.918 104.023 18.5762 104.004 18.4004C103.984 18.2246 103.984 17.7852 104.004 17.082C104.023 16.3789 104.053 15.6074 104.092 14.7676C104.131 13.9082 104.17 13.0879 104.209 12.3066C104.248 11.5059 104.268 10.9199 104.268 10.5488C104.268 10.3535 104.277 10.1484 104.297 9.93359C104.297 9.75781 104.297 9.57227 104.297 9.37695C104.316 9.16211 104.326 8.95703 104.326 8.76172L100.078 8.73242L99.9023 7.0625L104.18 7.17969C104.141 6.96484 104.092 6.76953 104.033 6.59375C103.994 6.39844 103.955 6.24219 103.916 6.125C103.857 5.98828 103.799 5.87109 103.74 5.77344C103.662 5.67578 103.574 5.56836 103.477 5.45117C103.379 5.35352 103.252 5.22656 103.096 5.07031C102.939 4.91406 102.754 4.73828 102.539 4.54297Z" fill="black"/>
</svg>
