<svg width="233" height="30" viewBox="0 0 233 30" fill="none" xmlns="http://www.w3.org/2000/svg">
<path d="M1.85352 1.99414C2.47852 2.01367 3.02539 2.02344 3.49414 2.02344C3.96289 2.00391 4.34375 1.99414 4.63672 1.99414H5.48633C5.70117 1.97461 5.96484 1.96484 6.27734 1.96484C6.55078 1.96484 6.88281 1.96484 7.27344 1.96484C7.66406 1.96484 8.11328 1.97461 8.62109 1.99414C8.77734 2.54102 8.95312 3.07812 9.14844 3.60547C9.36328 4.11328 9.54883 4.57227 9.70508 4.98242C9.90039 5.4707 10.0957 5.92969 10.291 6.35938C10.4863 6.78906 10.7207 7.30664 10.9941 7.91211C11.2285 8.41992 11.5117 9.04492 11.8438 9.78711C12.1758 10.5098 12.5664 11.3398 13.0156 12.2773C13.2305 11.6719 13.4258 11.1152 13.6016 10.6074C13.7969 10.0996 13.9629 9.66016 14.0996 9.28906C14.2559 8.85938 14.3828 8.46875 14.4805 8.11719C14.5781 7.76562 14.6855 7.33594 14.8027 6.82812C14.9004 6.39844 15.0078 5.88086 15.125 5.27539C15.2617 4.66992 15.3984 3.9668 15.5352 3.16602C16.1016 3.16602 16.6094 3.16602 17.0586 3.16602C17.5078 3.16602 17.8984 3.15625 18.2305 3.13672C18.6016 3.13672 18.9336 3.12695 19.2266 3.10742C19.5391 3.10742 19.959 3.08789 20.4863 3.04883C20.9355 3.00977 21.5312 2.98047 22.2734 2.96094C23.0352 2.92187 23.9727 2.87305 25.0859 2.81445C24.6758 3.10742 24.3438 3.40039 24.0898 3.69336C23.8555 3.9668 23.6699 4.21094 23.5332 4.42578C23.377 4.67969 23.2793 4.92383 23.2402 5.1582C23.2012 5.35352 23.1621 5.80273 23.123 6.50586C23.1035 7.20898 23.0742 8.04883 23.0352 9.02539C23.0156 9.98242 22.9961 11.0078 22.9766 12.1016C22.9766 13.1953 22.9863 14.2305 23.0059 15.207C23.0254 16.1836 23.0547 17.0332 23.0938 17.7559C23.1523 18.459 23.2305 18.9082 23.3281 19.1035C23.4648 19.3379 23.6504 19.6113 23.8848 19.9238C24.0996 20.1973 24.373 20.5098 24.7051 20.8613C25.0566 21.2129 25.5156 21.6035 26.082 22.0332C25.1836 22.0723 24.4316 22.1016 23.8262 22.1211C23.2402 22.1406 22.752 22.1602 22.3613 22.1797C21.9121 22.1992 21.5508 22.209 21.2773 22.209C20.9844 22.209 20.584 22.2188 20.0762 22.2383C19.627 22.2578 19.0312 22.2871 18.2891 22.3262C17.5469 22.3457 16.5898 22.3848 15.418 22.4434C15.6914 22.1309 15.9453 21.8184 16.1797 21.5059C16.4141 21.1934 16.6094 20.9102 16.7656 20.6562C16.9609 20.3633 17.127 20.0801 17.2637 19.8066C17.4004 19.4355 17.5078 18.7617 17.5859 17.7852C17.6641 16.9453 17.7227 15.7441 17.7617 14.1816C17.8008 12.5996 17.8008 10.4805 17.7617 7.82422C17.3906 8.42969 17.0586 9.03516 16.7656 9.64062C16.4922 10.2266 16.248 10.7637 16.0332 11.252C15.7988 11.8184 15.584 12.3652 15.3887 12.8926C15.1934 13.4395 14.9883 14.0449 14.7734 14.709C14.5781 15.2754 14.3438 15.9492 14.0703 16.7305C13.8164 17.5117 13.5234 18.3711 13.1914 19.3086L12.0781 19.3672C11.9219 18.5859 11.7656 17.8828 11.6094 17.2578C11.4531 16.6133 11.2969 16.0664 11.1406 15.6172C10.9648 15.0898 10.7891 14.6211 10.6133 14.2109C10.418 13.8008 10.2031 13.3418 9.96875 12.834C9.75391 12.4043 9.49023 11.8965 9.17773 11.3105C8.88477 10.7246 8.54297 10.0703 8.15234 9.34766C7.95703 11.3398 7.83984 12.9609 7.80078 14.2109C7.76172 15.4414 7.76172 16.3984 7.80078 17.082C7.83984 17.9023 7.89844 18.498 7.97656 18.8691C8.09375 19.2012 8.2793 19.5723 8.5332 19.9824C8.74805 20.334 9.04102 20.7539 9.41211 21.2422C9.80273 21.7109 10.3008 22.2383 10.9062 22.8242C10.4766 22.8242 10.0273 22.8242 9.55859 22.8242C9.08984 22.8242 8.66016 22.834 8.26953 22.8535C7.80078 22.873 7.3418 22.8828 6.89258 22.8828C6.42383 22.9023 5.87695 22.9316 5.25195 22.9707C4.70508 23.0098 4.05078 23.0488 3.28906 23.0879C2.52734 23.127 1.64844 23.1953 0.652344 23.293C1.08203 23.0195 1.43359 22.7559 1.70703 22.502C1.98047 22.2285 2.19531 21.9844 2.35156 21.7695C2.54688 21.5156 2.69336 21.2617 2.79102 21.0078C2.84961 20.8516 2.89844 20.5098 2.9375 19.9824C2.99609 19.4551 3.04492 18.8105 3.08398 18.0488C3.14258 17.2871 3.18164 16.4375 3.20117 15.5C3.24023 14.5625 3.26953 13.6152 3.28906 12.6582C3.32812 11.6816 3.35742 10.7344 3.37695 9.81641C3.39648 8.87891 3.40625 8.03906 3.40625 7.29688C3.42578 6.53516 3.43555 5.90039 3.43555 5.39258C3.43555 4.88477 3.43555 4.5625 3.43555 4.42578C3.37695 4.13281 3.28906 3.83984 3.17188 3.54688C3.07422 3.29297 2.91797 3.0293 2.70312 2.75586C2.48828 2.48242 2.20508 2.22852 1.85352 1.99414ZM32.791 18.2832C33.3379 18.2832 33.8457 18.2246 34.3145 18.1074C34.7051 18.0098 35.0762 17.8535 35.4277 17.6387C35.7988 17.4043 36.043 17.0625 36.1602 16.6133C36.5508 16.6914 36.8828 16.7598 37.1562 16.8184C37.4297 16.8574 37.6641 16.8965 37.8594 16.9355C38.0742 16.9941 38.2598 17.0332 38.416 17.0527C38.5723 17.0918 38.7578 17.1309 38.9727 17.1699C39.168 17.209 39.4023 17.2578 39.6758 17.3164C39.9688 17.3555 40.3105 17.4141 40.7012 17.4922C40.4082 17.4531 40.1055 17.4824 39.793 17.5801C39.5 17.6777 39.2168 17.7852 38.9434 17.9023C38.6309 18.0391 38.3379 18.2051 38.0645 18.4004C37.8887 18.5176 37.6836 18.6934 37.4492 18.9277C37.2344 19.1621 36.9219 19.3867 36.5117 19.6016C36.1016 19.8164 35.5547 20.002 34.8711 20.1582C34.207 20.2949 33.3477 20.3438 32.293 20.3047C31.0234 20.2656 29.959 20.041 29.0996 19.6309C28.2402 19.2012 27.5469 18.6836 27.0195 18.0781C26.4922 17.4531 26.1113 16.7793 25.877 16.0566C25.6426 15.334 25.5156 14.6602 25.4961 14.0352C25.4766 13.4102 25.6621 12.7559 26.0527 12.0723C26.4434 11.3887 26.9902 10.7637 27.6934 10.1973C28.416 9.63086 29.2852 9.17188 30.3008 8.82031C31.3164 8.44922 32.4297 8.26367 33.6406 8.26367C34.3438 8.26367 34.9883 8.35156 35.5742 8.52734C36.1797 8.68359 36.7266 8.89844 37.2148 9.17188C37.7227 9.44531 38.1621 9.75781 38.5332 10.1094C38.9043 10.4414 39.2168 10.7832 39.4707 11.1348C39.7246 11.5059 39.9395 11.8965 40.1152 12.3066C40.2715 12.6582 40.3984 13.0586 40.4961 13.5078C40.5938 13.957 40.623 14.416 40.584 14.8848C39.0996 14.9238 37.8984 14.9531 36.9805 14.9727C36.082 14.9922 35.3789 15.002 34.8711 15.002H33.5527H32.5566C32.2051 15.002 31.7461 15.0117 31.1797 15.0312C30.6133 15.0508 29.9199 15.0801 29.0996 15.1191C29.1973 15.9004 29.4414 16.5059 29.832 16.9355C30.2422 17.3457 30.6719 17.6582 31.1211 17.873C31.6289 18.1074 32.1855 18.2441 32.791 18.2832ZM30.1543 13.0098C30.7793 13.0488 31.2969 13.0781 31.707 13.0977C32.1367 13.1172 32.4883 13.1367 32.7617 13.1562C33.0547 13.1758 33.2891 13.1855 33.4648 13.1855H34.1973C34.6855 13.1855 35.5938 13.1562 36.9219 13.0977C36.8633 12.2383 36.6777 11.584 36.3652 11.1348C36.0723 10.6855 35.7598 10.3535 35.4277 10.1387C35.0371 9.9043 34.6074 9.76758 34.1387 9.72852C32.8691 9.74805 31.9219 10.0117 31.2969 10.5195C30.6914 11.0273 30.3105 11.8574 30.1543 13.0098ZM41.4629 8.9668C41.834 8.98633 42.166 8.99609 42.459 8.99609C42.7715 8.97656 43.0352 8.95703 43.25 8.9375C43.5039 8.91797 43.7285 8.89844 43.9238 8.87891C44.2168 8.83984 44.5195 8.79102 44.832 8.73242C45.1055 8.69336 45.3887 8.64453 45.6816 8.58594C45.9941 8.50781 46.2969 8.41992 46.5898 8.32227C46.4727 8.61523 46.375 8.86914 46.2969 9.08398C46.2188 9.29883 46.1602 9.48438 46.1211 9.64062C46.0625 9.81641 46.0332 9.96289 46.0332 10.0801C46.0137 10.2168 46.0039 10.3828 46.0039 10.5781C45.9844 10.9102 45.9844 11.4473 46.0039 12.1895C47.0195 11.3105 47.8691 10.627 48.5527 10.1387C49.2559 9.65039 49.8125 9.26953 50.2227 8.99609C50.7109 8.68359 51.0918 8.47852 51.3652 8.38086C52.0879 8.26367 52.7227 8.42969 53.2695 8.87891C53.5039 9.07422 53.7285 9.33789 53.9434 9.66992C54.1582 9.98242 54.3438 10.4023 54.5 10.9297C54.6562 11.457 54.7734 12.0918 54.8516 12.834C54.9297 13.5566 54.9395 14.4258 54.8809 15.4414C54.4707 15.4805 54.0996 15.5195 53.7676 15.5586C53.4551 15.5977 53.1914 15.627 52.9766 15.6465C52.7227 15.6855 52.4883 15.7051 52.2734 15.7051L51.4824 15.793C51.209 15.832 50.8672 15.8711 50.457 15.9102C50.0664 15.9297 49.5879 15.9688 49.0215 16.0273C49.8418 15.3633 50.3691 14.7871 50.6035 14.2988C50.8574 13.791 50.9648 13.3711 50.9258 13.0391C50.8867 12.668 50.7109 12.3457 50.3984 12.0723C50.0273 11.8574 49.627 11.7793 49.1973 11.8379C48.8262 11.877 48.3965 12.043 47.9082 12.3359C47.4199 12.6289 46.9023 13.1758 46.3555 13.9766C46.3945 15.2266 46.4336 16.2617 46.4727 17.082C46.5312 17.9023 46.5801 18.5664 46.6191 19.0742C46.6777 19.6602 46.7266 20.1191 46.7656 20.4512C46.8242 20.7441 46.9414 21.0566 47.1172 21.3887C47.2539 21.6621 47.4492 21.9648 47.7031 22.2969C47.957 22.6289 48.2891 22.9609 48.6992 23.293C47.8398 23.2539 47.1367 23.2539 46.5898 23.293C46.2578 23.3125 45.9648 23.332 45.7109 23.3516C45.4375 23.3906 45.1445 23.4297 44.832 23.4688C44.5586 23.5078 44.2363 23.5469 43.8652 23.5859C43.5137 23.6445 43.123 23.7031 42.6934 23.7617C42.8496 23.5469 42.9766 23.293 43.0742 23C43.1719 22.7266 43.25 22.4629 43.3086 22.209C43.3867 21.916 43.4453 21.6133 43.4844 21.3008C43.5039 21.0273 43.5137 20.6172 43.5137 20.0703C43.5332 19.5234 43.5234 18.9082 43.4844 18.2246C43.4648 17.5215 43.4355 16.7988 43.3965 16.0566C43.3574 15.2949 43.3086 14.582 43.25 13.918C43.1914 13.2539 43.123 12.6777 43.0449 12.1895C42.9863 11.6816 42.918 11.3301 42.8398 11.1348C42.7422 10.9004 42.625 10.666 42.4883 10.4316C42.3711 10.2168 42.2246 9.99219 42.0488 9.75781C41.873 9.50391 41.6777 9.24023 41.4629 8.9668ZM55.8184 8.9668C56.1895 8.98633 56.5215 8.99609 56.8145 8.99609C57.127 8.97656 57.3906 8.95703 57.6055 8.9375C57.8594 8.91797 58.084 8.89844 58.2793 8.87891C58.5723 8.83984 58.875 8.79102 59.1875 8.73242C59.4609 8.69336 59.7441 8.64453 60.0371 8.58594C60.3496 8.50781 60.6523 8.41992 60.9453 8.32227C60.8281 8.61523 60.7305 8.86914 60.6523 9.08398C60.5742 9.29883 60.5156 9.48438 60.4766 9.64062C60.418 9.81641 60.3887 9.96289 60.3887 10.0801C60.3691 10.2168 60.3594 10.3828 60.3594 10.5781C60.3398 10.9102 60.3398 11.4473 60.3594 12.1895C61.375 11.3105 62.2246 10.627 62.9082 10.1387C63.6113 9.65039 64.168 9.26953 64.5781 8.99609C65.0664 8.68359 65.4473 8.47852 65.7207 8.38086C66.4434 8.26367 67.0781 8.42969 67.625 8.87891C67.8594 9.07422 68.084 9.33789 68.2988 9.66992C68.5137 9.98242 68.6992 10.4023 68.8555 10.9297C69.0117 11.457 69.1289 12.0918 69.207 12.834C69.2852 13.5566 69.2949 14.4258 69.2363 15.4414C68.8262 15.4805 68.4551 15.5195 68.123 15.5586C67.8105 15.5977 67.5469 15.627 67.332 15.6465C67.0781 15.6855 66.8438 15.7051 66.6289 15.7051L65.8379 15.793C65.5645 15.832 65.2227 15.8711 64.8125 15.9102C64.4219 15.9297 63.9434 15.9688 63.377 16.0273C64.1973 15.3633 64.7246 14.7871 64.959 14.2988C65.2129 13.791 65.3203 13.3711 65.2812 13.0391C65.2422 12.668 65.0664 12.3457 64.7539 12.0723C64.3828 11.8574 63.9824 11.7793 63.5527 11.8379C63.1816 11.877 62.752 12.043 62.2637 12.3359C61.7754 12.6289 61.2578 13.1758 60.7109 13.9766C60.75 15.2266 60.7891 16.2617 60.8281 17.082C60.8867 17.9023 60.9355 18.5664 60.9746 19.0742C61.0332 19.6602 61.082 20.1191 61.1211 20.4512C61.1797 20.7441 61.2969 21.0566 61.4727 21.3887C61.6094 21.6621 61.8047 21.9648 62.0586 22.2969C62.3125 22.6289 62.6445 22.9609 63.0547 23.293C62.1953 23.2539 61.4922 23.2539 60.9453 23.293C60.6133 23.3125 60.3203 23.332 60.0664 23.3516C59.793 23.3906 59.5 23.4297 59.1875 23.4688C58.9141 23.5078 58.5918 23.5469 58.2207 23.5859C57.8691 23.6445 57.4785 23.7031 57.0488 23.7617C57.2051 23.5469 57.332 23.293 57.4297 23C57.5273 22.7266 57.6055 22.4629 57.6641 22.209C57.7422 21.916 57.8008 21.6133 57.8398 21.3008C57.8594 21.0273 57.8691 20.6172 57.8691 20.0703C57.8887 19.5234 57.8789 18.9082 57.8398 18.2246C57.8203 17.5215 57.791 16.7988 57.752 16.0566C57.7129 15.2949 57.6641 14.582 57.6055 13.918C57.5469 13.2539 57.4785 12.6777 57.4004 12.1895C57.3418 11.6816 57.2734 11.3301 57.1953 11.1348C57.0977 10.9004 56.9805 10.666 56.8438 10.4316C56.7266 10.2168 56.5801 9.99219 56.4043 9.75781C56.2285 9.50391 56.0332 9.24023 55.8184 8.9668ZM68.9727 8.0293C69.3633 8.08789 69.7148 8.13672 70.0273 8.17578C70.3203 8.19531 70.584 8.21484 70.8184 8.23438C71.0723 8.25391 71.3164 8.26367 71.5508 8.26367C71.7656 8.26367 72.0391 8.25391 72.3711 8.23438C72.6445 8.21484 72.9961 8.19531 73.4258 8.17578C73.875 8.13672 74.4023 8.08789 75.0078 8.0293C74.9688 8.10742 74.8906 8.35156 74.7734 8.76172C74.6562 9.15234 74.5391 9.64062 74.4219 10.2266C74.3047 10.793 74.1973 11.4277 74.0996 12.1309C74.0215 12.8145 73.9824 13.498 73.9824 14.1816C74.002 14.8457 74.0898 15.4805 74.2461 16.0859C74.4023 16.6719 74.6562 17.1504 75.0078 17.5215C75.75 18.2832 76.4043 18.7422 76.9707 18.8984C77.5566 19.0547 78.0645 19.0352 78.4941 18.8398C78.9238 18.6445 79.2754 18.3516 79.5488 17.9609C79.8223 17.5703 80.0176 17.209 80.1348 16.877C80.4277 15.9785 80.6035 15.0312 80.6621 14.0352C80.7012 13.1758 80.6328 12.2188 80.457 11.1641C80.2812 10.1094 79.8613 9.03516 79.1973 7.94141C79.7051 7.98047 80.1445 8.00977 80.5156 8.0293C80.8867 8.04883 81.209 8.06836 81.4824 8.08789C81.7949 8.10742 82.0684 8.12695 82.3027 8.14648C82.5176 8.16602 82.7715 8.16602 83.0645 8.14648C83.3184 8.14648 83.6211 8.13672 83.9727 8.11719C84.3438 8.07812 84.7539 8.03906 85.2031 8C85.2812 9.91406 85.3496 11.623 85.4082 13.127C85.4668 14.6113 85.5059 15.9297 85.5254 17.082C85.5645 18.2148 85.584 19.2012 85.584 20.041C85.584 20.8613 85.584 21.5547 85.584 22.1211C85.5645 23.4688 85.5059 24.3574 85.4082 24.7871C85.252 25.3926 84.9688 25.998 84.5586 26.6035C84.168 27.209 83.6699 27.7461 83.0645 28.2148C82.459 28.7031 81.7559 29.0742 80.9551 29.3281C80.1738 29.6016 79.3145 29.6992 78.377 29.6211C77.459 29.543 76.7266 29.416 76.1797 29.2402C75.6523 29.084 75.2324 28.8984 74.9199 28.6836C74.627 28.4688 74.4121 28.2441 74.2754 28.0098C74.1582 27.7754 74.0703 27.5312 74.0117 27.2773C73.9531 27.043 73.8945 26.8184 73.8359 26.6035C73.7773 26.3887 73.6602 26.2031 73.4844 26.0469C73.2695 25.8711 73.0449 25.6953 72.8105 25.5195C72.5957 25.3633 72.3613 25.207 72.1074 25.0508C71.873 24.8945 71.6387 24.7676 71.4043 24.6699L77.6445 24.3184C77.4688 24.5527 77.3418 24.7676 77.2637 24.9629C77.1855 25.1582 77.1367 25.3242 77.1172 25.4609C77.0977 25.6367 77.1074 25.7832 77.1465 25.9004C77.2246 26.1348 77.3613 26.3887 77.5566 26.6621C77.7715 26.9551 78.0449 27.1797 78.377 27.3359C78.709 27.5117 79.0996 27.5703 79.5488 27.5117C80.0176 27.4531 80.5449 27.209 81.1309 26.7793C81.6191 26.4082 82.0293 25.8125 82.3613 24.9922C82.6348 24.2891 82.8496 23.3027 83.0059 22.0332C83.1621 20.7637 83.1328 19.0938 82.918 17.0234C82.5664 18.2344 82.0879 19.1621 81.4824 19.8066C80.877 20.4512 80.2715 20.9199 79.666 21.2129C78.9629 21.5645 78.2305 21.75 77.4688 21.7695C76.4531 21.7305 75.584 21.6035 74.8613 21.3887C74.1387 21.1543 73.543 20.8418 73.0742 20.4512C72.6055 20.0605 72.2344 19.6016 71.9609 19.0742C71.707 18.5273 71.5215 17.9219 71.4043 17.2578C71.2871 16.5938 71.2285 15.9297 71.2285 15.2656C71.2285 14.582 71.2285 13.9473 71.2285 13.3613C71.248 12.7754 71.2578 12.248 71.2578 11.7793C71.2578 11.291 71.209 10.9004 71.1113 10.6074C70.9941 10.3145 70.8379 10.0215 70.6426 9.72852C70.4863 9.47461 70.2715 9.20117 69.998 8.9082C69.7051 8.5957 69.3633 8.30273 68.9727 8.0293ZM105.594 1.34961C106.277 1.34961 106.893 1.4668 107.439 1.70117C108.006 1.91602 108.523 2.16016 108.992 2.43359C109.48 2.70703 109.939 2.96094 110.369 3.19531C110.799 3.41016 111.238 3.51758 111.688 3.51758C112.039 3.49805 112.439 3.44922 112.889 3.37109C113.279 3.29297 113.729 3.17578 114.236 3.01953C114.764 2.84375 115.35 2.58984 115.994 2.25781C115.35 2.88281 114.822 3.41016 114.412 3.83984C114.021 4.25 113.719 4.5918 113.504 4.86523C113.25 5.17773 113.064 5.42188 112.947 5.59766C112.83 5.8125 112.654 6.13477 112.42 6.56445C112.205 6.95508 111.912 7.48242 111.541 8.14648C111.17 8.79102 110.701 9.64062 110.135 10.6953C110.135 9.34766 109.998 8.30273 109.725 7.56055C109.471 6.81836 109.188 6.25195 108.875 5.86133C108.504 5.41211 108.084 5.12891 107.615 5.01172C107.186 4.95312 106.756 5.03125 106.326 5.24609C105.896 5.44141 105.467 5.73437 105.037 6.125C104.627 6.51563 104.227 6.98438 103.836 7.53125C103.465 8.05859 103.123 8.61523 102.811 9.20117C102.518 9.78711 102.273 10.3828 102.078 10.9883C101.883 11.5742 101.756 12.1211 101.697 12.6289C101.639 13.0781 101.629 13.6055 101.668 14.2109C101.707 14.7969 101.795 15.4023 101.932 16.0273C102.068 16.6328 102.244 17.2285 102.459 17.8145C102.674 18.4004 102.938 18.9277 103.25 19.3965C103.582 19.8457 103.953 20.2168 104.363 20.5098C104.773 20.7832 105.242 20.9102 105.77 20.8906C106.355 20.8516 106.932 20.6758 107.498 20.3633C107.986 20.1094 108.484 19.7188 108.992 19.1914C109.5 18.6445 109.939 17.873 110.311 16.877L114.646 17.668C113.396 19.1914 112.176 20.334 110.984 21.0957C109.812 21.8574 108.758 22.3945 107.82 22.707C106.727 23.0586 105.691 23.2246 104.715 23.2051C103.484 23.0684 102.332 22.6973 101.258 22.0918C100.184 21.4863 99.2559 20.7539 98.4746 19.8945C97.7129 19.0156 97.1172 18.0586 96.6875 17.0234C96.2578 15.9883 96.0723 14.9727 96.1309 13.9766C96.1699 13.3125 96.3066 12.541 96.541 11.6621C96.7754 10.7637 97.0879 9.8457 97.4785 8.9082C97.8887 7.9707 98.377 7.05273 98.9434 6.1543C99.5098 5.25586 100.135 4.45508 100.818 3.75195C101.502 3.0293 102.244 2.45312 103.045 2.02344C103.865 1.57422 104.715 1.34961 105.594 1.34961ZM114.793 0.792969C115.242 0.871094 115.652 0.929687 116.023 0.96875C116.395 0.988281 116.707 1.00781 116.961 1.02734C117.254 1.04687 117.508 1.05664 117.723 1.05664C118.016 1.03711 118.357 1.00781 118.748 0.96875C119.08 0.929687 119.48 0.880859 119.949 0.822266C120.438 0.763672 120.994 0.685547 121.619 0.587891C121.326 0.744141 121.082 0.900391 120.887 1.05664C120.691 1.19336 120.535 1.33984 120.418 1.49609C120.281 1.67188 120.174 1.83789 120.096 1.99414C119.998 2.24805 119.891 2.77539 119.773 3.57617C119.656 4.25977 119.51 5.27539 119.334 6.62305C119.178 7.9707 118.973 9.79688 118.719 12.1016C119.422 11.3984 120.086 10.8711 120.711 10.5195C121.355 10.1484 121.922 9.88477 122.41 9.72852C122.977 9.55273 123.504 9.46484 123.992 9.46484C124.598 9.52344 125.213 9.71875 125.838 10.0508C126.482 10.3633 127.078 10.7344 127.625 11.1641C128.191 11.5938 128.68 12.0527 129.09 12.541C129.52 13.0293 129.822 13.459 129.998 13.8301C130.115 14.084 130.174 14.416 130.174 14.8262C130.174 15.2168 130.135 15.6465 130.057 16.1152C129.979 16.584 129.871 17.0625 129.734 17.5508C129.598 18.0391 129.461 18.498 129.324 18.9277C129.207 19.3574 129.1 19.7383 129.002 20.0703C128.904 20.3828 128.846 20.6074 128.826 20.7441C128.787 21.0371 128.807 21.3203 128.885 21.5938C128.943 21.8281 129.061 22.082 129.236 22.3555C129.412 22.6094 129.676 22.8242 130.027 23C129.754 22.9609 129.461 22.9316 129.148 22.9121C128.855 22.873 128.572 22.8438 128.299 22.8242C127.986 22.8047 127.674 22.7949 127.361 22.7949H126.307C125.975 22.7949 125.594 22.8047 125.164 22.8242C124.734 22.8242 124.266 22.834 123.758 22.8535C124.031 22.7559 124.266 22.6289 124.461 22.4727C124.656 22.2969 124.822 22.1309 124.959 21.9746C125.115 21.7988 125.252 21.6133 125.369 21.418C125.447 21.2617 125.545 20.9688 125.662 20.5391C125.779 20.0898 125.887 19.582 125.984 19.0156C126.082 18.4297 126.15 17.8145 126.189 17.1699C126.248 16.5254 126.258 15.9102 126.219 15.3242C126.199 14.7188 126.111 14.1816 125.955 13.7129C125.818 13.2441 125.604 12.9023 125.311 12.6875C124.432 12.0234 123.631 11.7012 122.908 11.7207C122.205 11.7207 121.531 12.0039 120.887 12.5703C120.652 12.7852 120.428 13 120.213 13.2148C120.018 13.4102 119.803 13.6445 119.568 13.918C119.334 14.1719 119.119 14.4355 118.924 14.709C118.924 15.002 118.934 15.3242 118.953 15.6758C118.973 16.0273 118.992 16.3691 119.012 16.7012C119.031 17.0723 119.061 17.4434 119.1 17.8145C119.139 18.3809 119.197 18.9375 119.275 19.4844C119.334 19.9531 119.412 20.4707 119.51 21.0371C119.607 21.584 119.734 22.082 119.891 22.5312C119.637 22.4922 119.373 22.4824 119.1 22.502C118.826 22.502 118.562 22.502 118.309 22.502C118.016 22.5215 117.732 22.5312 117.459 22.5312C117.205 22.5508 116.941 22.5801 116.668 22.6191C116.434 22.6582 116.18 22.6973 115.906 22.7363C115.633 22.7559 115.369 22.7949 115.115 22.8535C115.35 22.4043 115.545 21.9648 115.701 21.5352C115.857 21.0859 115.984 20.6953 116.082 20.3633C116.199 19.9727 116.297 19.5918 116.375 19.2207C116.434 18.9277 116.473 18.3711 116.492 17.5508C116.531 16.7109 116.561 15.7539 116.58 14.6797C116.6 13.5859 116.609 12.4336 116.609 11.2227C116.609 10.0117 116.6 8.85938 116.58 7.76562C116.561 6.67187 116.521 5.71484 116.463 4.89453C116.424 4.07422 116.375 3.50781 116.316 3.19531C116.238 2.88281 116.131 2.57031 115.994 2.25781C115.877 1.98437 115.721 1.7207 115.525 1.4668C115.33 1.19336 115.086 0.96875 114.793 0.792969ZM131.346 8.9668C131.717 8.98633 132.049 8.99609 132.342 8.99609C132.654 8.97656 132.918 8.95703 133.133 8.9375C133.387 8.91797 133.611 8.89844 133.807 8.87891C134.1 8.83984 134.402 8.79102 134.715 8.73242C134.988 8.69336 135.271 8.64453 135.564 8.58594C135.877 8.50781 136.18 8.41992 136.473 8.32227C136.355 8.61523 136.258 8.86914 136.18 9.08398C136.102 9.29883 136.043 9.48438 136.004 9.64062C135.945 9.81641 135.916 9.96289 135.916 10.0801C135.896 10.2168 135.887 10.3828 135.887 10.5781C135.867 10.9102 135.867 11.4473 135.887 12.1895C136.902 11.3105 137.752 10.627 138.436 10.1387C139.139 9.65039 139.695 9.26953 140.105 8.99609C140.594 8.68359 140.975 8.47852 141.248 8.38086C141.971 8.26367 142.605 8.42969 143.152 8.87891C143.387 9.07422 143.611 9.33789 143.826 9.66992C144.041 9.98242 144.227 10.4023 144.383 10.9297C144.539 11.457 144.656 12.0918 144.734 12.834C144.812 13.5566 144.822 14.4258 144.764 15.4414C144.354 15.4805 143.982 15.5195 143.65 15.5586C143.338 15.5977 143.074 15.627 142.859 15.6465C142.605 15.6855 142.371 15.7051 142.156 15.7051L141.365 15.793C141.092 15.832 140.75 15.8711 140.34 15.9102C139.949 15.9297 139.471 15.9688 138.904 16.0273C139.725 15.3633 140.252 14.7871 140.486 14.2988C140.74 13.791 140.848 13.3711 140.809 13.0391C140.77 12.668 140.594 12.3457 140.281 12.0723C139.91 11.8574 139.51 11.7793 139.08 11.8379C138.709 11.877 138.279 12.043 137.791 12.3359C137.303 12.6289 136.785 13.1758 136.238 13.9766C136.277 15.2266 136.316 16.2617 136.355 17.082C136.414 17.9023 136.463 18.5664 136.502 19.0742C136.561 19.6602 136.609 20.1191 136.648 20.4512C136.707 20.7441 136.824 21.0566 137 21.3887C137.137 21.6621 137.332 21.9648 137.586 22.2969C137.84 22.6289 138.172 22.9609 138.582 23.293C137.723 23.2539 137.02 23.2539 136.473 23.293C136.141 23.3125 135.848 23.332 135.594 23.3516C135.32 23.3906 135.027 23.4297 134.715 23.4688C134.441 23.5078 134.119 23.5469 133.748 23.5859C133.396 23.6445 133.006 23.7031 132.576 23.7617C132.732 23.5469 132.859 23.293 132.957 23C133.055 22.7266 133.133 22.4629 133.191 22.209C133.27 21.916 133.328 21.6133 133.367 21.3008C133.387 21.0273 133.396 20.6172 133.396 20.0703C133.416 19.5234 133.406 18.9082 133.367 18.2246C133.348 17.5215 133.318 16.7988 133.279 16.0566C133.24 15.2949 133.191 14.582 133.133 13.918C133.074 13.2539 133.006 12.6777 132.928 12.1895C132.869 11.6816 132.801 11.3301 132.723 11.1348C132.625 10.9004 132.508 10.666 132.371 10.4316C132.254 10.2168 132.107 9.99219 131.932 9.75781C131.756 9.50391 131.561 9.24023 131.346 8.9668ZM145.994 9.9043L151.385 9.96289C151.072 11.1543 150.838 12.1699 150.682 13.0098C150.545 13.8496 150.457 14.5527 150.418 15.1191C150.34 15.7637 150.32 16.3105 150.359 16.7598C150.418 17.1699 150.516 17.6094 150.652 18.0781C150.77 18.4688 150.945 18.918 151.18 19.4258C151.414 19.9336 151.727 20.4414 152.117 20.9492C151.883 20.8711 151.629 20.8125 151.355 20.7734C151.082 20.7344 150.828 20.7051 150.594 20.6855C150.32 20.666 150.047 20.666 149.773 20.6855C149.5 20.7051 149.197 20.7344 148.865 20.7734C148.592 20.8125 148.26 20.8613 147.869 20.9199C147.479 20.9785 147.068 21.0566 146.639 21.1543C146.932 20.2754 147.156 19.5137 147.312 18.8691C147.488 18.2246 147.615 17.6875 147.693 17.2578C147.771 16.75 147.82 16.3398 147.84 16.0273C147.84 15.6367 147.84 15.1973 147.84 14.709C147.84 14.2012 147.84 13.7129 147.84 13.2441C147.84 12.7754 147.83 12.3652 147.811 12.0137C147.791 11.6426 147.752 11.4082 147.693 11.3105L147.4 11.0176C147.283 10.9199 147.107 10.7832 146.873 10.6074C146.658 10.4121 146.365 10.1777 145.994 9.9043ZM148.074 5.39258C148.484 5.17773 148.895 5.11914 149.305 5.2168C149.734 5.31445 150.066 5.5 150.301 5.77344C150.535 6.04688 150.613 6.36914 150.535 6.74023C150.477 7.11133 150.164 7.47266 149.598 7.82422C149.031 8.15625 148.533 8.27344 148.104 8.17578C147.674 8.07812 147.371 7.87305 147.195 7.56055C147.02 7.24805 146.99 6.88672 147.107 6.47656C147.225 6.04688 147.547 5.68555 148.074 5.39258ZM166.092 6.27148C165.916 6.70117 165.76 7.0918 165.623 7.44336C165.506 7.79492 165.398 8.10742 165.301 8.38086C165.203 8.69336 165.115 8.9668 165.037 9.20117C164.959 9.47461 164.871 9.78711 164.773 10.1387C164.676 10.4512 164.549 10.8418 164.393 11.3105C164.256 11.7598 164.09 12.2969 163.895 12.9219C163.738 11.9844 163.455 11.2422 163.045 10.6953C162.635 10.1289 162.215 9.68945 161.785 9.37695C161.277 9.02539 160.73 8.77148 160.145 8.61523C159.09 8.43945 158.328 8.45898 157.859 8.67383C157.391 8.88867 157.078 9.16211 156.922 9.49414C156.844 9.63086 156.756 9.80664 156.658 10.0215C156.58 10.2168 156.512 10.4219 156.453 10.6367C156.414 10.8516 156.404 11.0664 156.424 11.2812C156.443 11.4961 156.531 11.6719 156.688 11.8086C156.785 11.9062 157.039 12.043 157.449 12.2188C157.859 12.375 158.348 12.5605 158.914 12.7754C159.5 12.9707 160.115 13.1855 160.76 13.4199C161.424 13.6543 162.049 13.8887 162.635 14.123C163.221 14.3574 163.729 14.5918 164.158 14.8262C164.588 15.0605 164.871 15.2754 165.008 15.4707C165.125 15.666 165.252 15.9297 165.389 16.2617C165.545 16.5742 165.652 16.9258 165.711 17.3164C165.789 17.6875 165.809 18.0781 165.77 18.4883C165.75 18.8789 165.643 19.2695 165.447 19.6602C165.252 20.0508 164.939 20.4121 164.51 20.7441C164.1 21.0762 163.543 21.3496 162.84 21.5645C162.02 21.8184 161.229 21.8867 160.467 21.7695C159.705 21.6523 159.002 21.4766 158.357 21.2422C157.732 21.0078 157.186 20.7832 156.717 20.5684C156.248 20.334 155.916 20.2363 155.721 20.2754C155.506 20.3145 155.262 20.4219 154.988 20.5977C154.715 20.7734 154.451 20.959 154.197 21.1543C153.963 21.3301 153.758 21.4961 153.582 21.6523C153.406 21.7891 153.318 21.8379 153.318 21.7988C153.318 21.7598 153.348 21.6426 153.406 21.4473C153.484 21.252 153.562 21.0176 153.641 20.7441C153.738 20.4512 153.826 20.1387 153.904 19.8066C154.002 19.4551 154.07 19.123 154.109 18.8105C154.148 18.5566 154.197 18.2441 154.256 17.873C154.295 17.541 154.344 17.1406 154.402 16.6719C154.48 16.1836 154.568 15.5977 154.666 14.9141C154.764 15.4219 154.9 15.8613 155.076 16.2324C155.271 16.6035 155.457 16.9258 155.633 17.1992C155.848 17.5117 156.053 17.7754 156.248 17.9902C156.541 18.2637 156.883 18.5176 157.273 18.752C157.684 18.9863 158.094 19.1914 158.504 19.3672C158.914 19.5234 159.305 19.6211 159.676 19.6602C160.047 19.6992 160.359 19.6602 160.613 19.543C160.867 19.4258 161.082 19.2109 161.258 18.8984C161.453 18.5859 161.59 18.2441 161.668 17.873C161.746 17.502 161.775 17.1504 161.756 16.8184C161.736 16.4668 161.648 16.1836 161.492 15.9688C161.375 15.832 161.102 15.6562 160.672 15.4414C160.262 15.2266 159.764 14.9922 159.178 14.7383C158.611 14.4844 158.006 14.2207 157.361 13.9473C156.736 13.6738 156.141 13.4004 155.574 13.127C155.027 12.834 154.568 12.5605 154.197 12.3066C153.846 12.0332 153.65 11.7891 153.611 11.5742C153.572 11.2617 153.543 10.9199 153.523 10.5488C153.504 10.1582 153.523 9.77734 153.582 9.40625C153.66 9.01562 153.797 8.64453 153.992 8.29297C154.207 7.94141 154.52 7.64844 154.93 7.41406C155.203 7.25781 155.564 7.14062 156.014 7.0625C156.463 6.98438 156.961 6.94531 157.508 6.94531C158.055 6.92578 158.621 6.94531 159.207 7.00391C159.793 7.04297 160.35 7.10156 160.877 7.17969C161.424 7.23828 161.912 7.31641 162.342 7.41406C162.791 7.51172 163.133 7.59961 163.367 7.67773C163.641 7.77539 163.934 7.78516 164.246 7.70703C164.52 7.64844 164.812 7.52148 165.125 7.32617C165.438 7.13086 165.76 6.7793 166.092 6.27148ZM166.795 4.54297C167.381 4.60156 167.869 4.65039 168.26 4.68945C168.67 4.72852 169.002 4.75781 169.256 4.77734C169.549 4.79687 169.783 4.80664 169.959 4.80664C170.135 4.82617 170.369 4.82617 170.662 4.80664C170.916 4.78711 171.248 4.76758 171.658 4.74805C172.068 4.70898 172.586 4.65039 173.211 4.57227C173.074 4.76758 172.967 4.94336 172.889 5.09961C172.811 5.23633 172.742 5.36328 172.684 5.48047L172.508 5.83203C172.469 5.94922 172.43 6.06641 172.391 6.18359C172.352 6.28125 172.312 6.39844 172.273 6.53516C172.254 6.67187 172.234 6.81836 172.215 6.97461H176.727L176.316 9.34766L172.186 9.11328C172.088 10.1094 172.02 10.8809 171.98 11.4277C171.941 11.9746 171.902 12.375 171.863 12.6289L171.805 13.1562C171.746 13.8984 171.688 14.709 171.629 15.5879C171.57 16.4473 171.551 17.248 171.57 17.9902C171.59 18.7324 171.658 19.3574 171.775 19.8652C171.893 20.3535 172.098 20.5977 172.391 20.5977C172.684 20.5977 172.957 20.5195 173.211 20.3633C173.465 20.207 173.68 20.0215 173.855 19.8066C174.051 19.5918 174.197 19.377 174.295 19.1621C174.393 18.9277 174.441 18.752 174.441 18.6348C174.441 18.5176 174.412 18.3809 174.354 18.2246C174.256 17.9316 174.08 17.5605 173.826 17.1113C174.393 17.248 174.891 17.3848 175.32 17.5215C175.535 17.5996 175.73 17.6777 175.906 17.7559C176.102 17.834 176.326 17.9219 176.58 18.0195C176.795 18.1172 177.068 18.2344 177.4 18.3711C177.732 18.5078 178.123 18.6738 178.572 18.8691C178.143 18.9473 177.83 19.0742 177.635 19.25C177.518 19.3281 177.43 19.416 177.371 19.5137C177.234 19.7285 177.078 20.0215 176.902 20.3926C176.727 20.7441 176.463 21.0957 176.111 21.4473C175.76 21.7988 175.281 22.1113 174.676 22.3848C174.09 22.6582 173.299 22.8145 172.303 22.8535C171.268 22.8926 170.477 22.7168 169.93 22.3262C169.402 21.9355 169.012 21.4863 168.758 20.9785C168.523 20.4512 168.387 19.9336 168.348 19.4258C168.309 18.918 168.279 18.5762 168.26 18.4004C168.24 18.2246 168.24 17.7852 168.26 17.082C168.279 16.3789 168.309 15.6074 168.348 14.7676C168.387 13.9082 168.426 13.0879 168.465 12.3066C168.504 11.5059 168.523 10.9199 168.523 10.5488C168.523 10.3535 168.533 10.1484 168.553 9.93359C168.553 9.75781 168.553 9.57227 168.553 9.37695C168.572 9.16211 168.582 8.95703 168.582 8.76172L164.334 8.73242L164.158 7.0625L168.436 7.17969C168.396 6.96484 168.348 6.76953 168.289 6.59375C168.25 6.39844 168.211 6.24219 168.172 6.125C168.113 5.98828 168.055 5.87109 167.996 5.77344C167.918 5.67578 167.83 5.56836 167.732 5.45117C167.635 5.35352 167.508 5.22656 167.352 5.07031C167.195 4.91406 167.01 4.73828 166.795 4.54297ZM177.225 9.11328C177.674 9.07422 178.055 9.03516 178.367 8.99609C178.699 8.95703 178.973 8.91797 179.188 8.87891C179.441 8.83984 179.656 8.80078 179.832 8.76172C180.008 8.74219 180.203 8.70312 180.418 8.64453C180.613 8.60547 180.828 8.55664 181.062 8.49805C181.316 8.41992 181.59 8.33203 181.883 8.23438L181.707 11.9551C182.137 11.2715 182.635 10.7539 183.201 10.4023C183.768 10.0312 184.305 9.75781 184.812 9.58203C185.418 9.36719 186.023 9.24023 186.629 9.20117C187.254 9.2207 187.83 9.31836 188.357 9.49414C188.807 9.65039 189.256 9.89453 189.705 10.2266C190.174 10.5586 190.535 11.0469 190.789 11.6914C191.453 11.0078 192.107 10.4805 192.752 10.1094C193.416 9.71875 194.002 9.42578 194.51 9.23047C195.115 9.01562 195.682 8.88867 196.209 8.84961C196.912 8.83008 197.557 8.94727 198.143 9.20117C198.748 9.45508 199.275 9.77734 199.725 10.168C200.174 10.5391 200.535 10.9395 200.809 11.3691C201.082 11.7793 201.238 12.1406 201.277 12.4531C201.336 12.8828 201.307 13.4395 201.189 14.123C201.072 14.7871 200.936 15.4707 200.779 16.1738C200.623 16.8574 200.477 17.4922 200.34 18.0781C200.223 18.6445 200.174 19.0449 200.193 19.2793C200.252 19.4746 200.389 19.709 200.604 19.9824C200.799 20.2168 201.082 20.5098 201.453 20.8613C201.844 21.1934 202.4 21.584 203.123 22.0332C202.498 22.0137 201.941 21.9941 201.453 21.9746C200.984 21.9551 200.584 21.9258 200.252 21.8867C199.861 21.8477 199.52 21.8184 199.227 21.7988C198.992 21.7988 198.709 21.7793 198.377 21.7402C198.104 21.7207 197.742 21.6914 197.293 21.6523C196.863 21.6133 196.365 21.5742 195.799 21.5352C196.014 21.4766 196.189 21.3691 196.326 21.2129C196.463 21.0371 196.58 20.8711 196.678 20.7148C196.775 20.5195 196.854 20.3047 196.912 20.0703C196.951 19.875 196.99 19.5625 197.029 19.1328C197.068 18.7031 197.098 18.2148 197.117 17.668C197.156 17.1211 197.176 16.5449 197.176 15.9395C197.195 15.334 197.195 14.7578 197.176 14.2109C197.156 13.6641 197.117 13.166 197.059 12.7168C197 12.2676 196.922 11.9258 196.824 11.6914C196.746 11.5156 196.609 11.3789 196.414 11.2812C196.219 11.1641 195.994 11.0957 195.74 11.0762C195.486 11.0371 195.232 11.0469 194.979 11.1055C194.725 11.1445 194.5 11.2227 194.305 11.3398C194.129 11.4766 193.895 11.6621 193.602 11.8965C193.348 12.1113 193.016 12.4043 192.605 12.7754C192.195 13.1465 191.678 13.6152 191.053 14.1816C190.994 15.4121 190.945 16.4082 190.906 17.1699C190.887 17.9121 190.867 18.4785 190.848 18.8691C190.828 19.3379 190.818 19.6602 190.818 19.8359C190.799 19.9922 190.809 20.1387 190.848 20.2754C190.887 20.5684 191.004 20.8418 191.199 21.0957C190.965 21.0371 190.711 20.998 190.438 20.9785C190.184 20.959 189.949 20.9395 189.734 20.9199C189.48 20.9004 189.227 20.8906 188.973 20.8906C188.758 20.8906 188.523 20.9004 188.27 20.9199C188.055 20.9395 187.791 20.9688 187.479 21.0078C187.166 21.0273 186.824 21.0566 186.453 21.0957C186.609 20.998 186.736 20.8809 186.834 20.7441C186.932 20.6074 187.01 20.4805 187.068 20.3633C187.146 20.2266 187.205 20.0996 187.244 19.9824C187.264 19.8652 187.303 19.582 187.361 19.1328C187.42 18.6641 187.459 18.1172 187.479 17.4922C187.498 16.8672 187.498 16.2129 187.479 15.5293C187.459 14.8262 187.391 14.1914 187.273 13.625C187.156 13.0391 186.971 12.5605 186.717 12.1895C186.482 11.8184 186.17 11.6523 185.779 11.6914C185.311 11.7305 184.832 11.8477 184.344 12.043C183.934 12.1992 183.494 12.4336 183.025 12.7461C182.557 13.0586 182.117 13.4785 181.707 14.0059C181.629 15.4707 181.58 16.6328 181.561 17.4922C181.561 18.3516 181.57 19.0059 181.59 19.4551C181.609 19.9824 181.629 20.3438 181.648 20.5391C181.668 20.6758 181.717 20.8125 181.795 20.9492C181.854 21.0664 181.922 21.2031 182 21.3594C182.098 21.5156 182.205 21.6621 182.322 21.7988L177.664 21.5645C177.82 21.4863 177.957 21.3887 178.074 21.2715C178.191 21.1348 178.289 20.998 178.367 20.8613C178.445 20.7051 178.523 20.5488 178.602 20.3926C178.66 20.2559 178.709 19.9336 178.748 19.4258C178.807 18.918 178.855 18.3223 178.895 17.6387C178.934 16.9355 178.963 16.2031 178.982 15.4414C179.021 14.6602 179.041 13.9375 179.041 13.2734C179.061 12.5898 179.07 12.0137 179.07 11.5449C179.07 11.0566 179.061 10.7637 179.041 10.666C178.982 10.4707 178.875 10.2656 178.719 10.0508C178.582 9.89453 178.396 9.72852 178.162 9.55273C177.928 9.35742 177.615 9.21094 177.225 9.11328ZM205.467 11.1348C205.564 11.0176 205.623 10.8027 205.643 10.4902C205.682 10.1582 205.76 9.78711 205.877 9.37695C206.014 8.9668 206.238 8.53711 206.551 8.08789C206.863 7.63867 207.371 7.21875 208.074 6.82812C208.758 6.4375 209.422 6.20312 210.066 6.125C210.711 6.04688 211.326 6.07617 211.912 6.21289C212.498 6.34961 213.045 6.56445 213.553 6.85742C214.08 7.15039 214.559 7.47266 214.988 7.82422C215.281 8.05859 215.516 8.40039 215.691 8.84961C215.867 9.2793 216.004 9.76758 216.102 10.3145C216.199 10.8613 216.268 11.4375 216.307 12.043C216.365 12.6289 216.404 13.2051 216.424 13.7715C216.443 14.3184 216.453 14.8262 216.453 15.2949C216.473 15.7441 216.512 16.1152 216.57 16.4082C216.648 16.8379 216.785 17.209 216.98 17.5215C217.176 17.8145 217.391 18.0684 217.625 18.2832C217.859 18.4785 218.094 18.6348 218.328 18.752C218.562 18.8691 218.768 18.957 218.943 19.0156C219.061 19.0742 219.168 19.1133 219.266 19.1328C219.461 19.2109 219.598 19.2109 219.676 19.1328C219.559 19.4062 219.451 19.6406 219.354 19.8359C219.256 20.0312 219.178 20.1973 219.119 20.334C219.041 20.4902 218.973 20.6172 218.914 20.7148C218.855 20.832 218.787 20.9395 218.709 21.0371C218.65 21.1348 218.572 21.2422 218.475 21.3594C218.377 21.4766 218.279 21.6035 218.182 21.7402C217.928 21.6426 217.684 21.5254 217.449 21.3887C217.234 21.252 217.039 21.125 216.863 21.0078C216.648 20.8711 216.453 20.7344 216.277 20.5977C216.102 20.4609 215.936 20.3047 215.779 20.1289C215.643 19.9727 215.496 19.8066 215.34 19.6309C215.203 19.4551 215.086 19.2598 214.988 19.0449C214.871 19.2988 214.588 19.6602 214.139 20.1289C213.709 20.5977 213.143 21.0273 212.439 21.418C211.736 21.7891 210.916 22.0527 209.979 22.209C209.061 22.3652 208.045 22.2578 206.932 21.8867C206.443 21.7305 205.984 21.5059 205.555 21.2129C205.125 20.9004 204.754 20.5293 204.441 20.0996C204.148 19.6699 203.934 19.1816 203.797 18.6348C203.68 18.0684 203.689 17.4434 203.826 16.7598C203.963 16.0762 204.207 15.5 204.559 15.0312C204.91 14.5625 205.33 14.1816 205.818 13.8887C206.307 13.5957 206.854 13.3711 207.459 13.2148C208.064 13.0586 208.689 12.9512 209.334 12.8926C209.842 12.873 210.35 12.9023 210.857 12.9805C211.287 13.0586 211.736 13.2051 212.205 13.4199C212.674 13.6152 213.074 13.918 213.406 14.3281C213.387 13.293 213.348 12.4727 213.289 11.8672C213.25 11.2422 213.211 10.7637 213.172 10.4316C213.094 10.041 213.025 9.76758 212.967 9.61133C212.869 9.47461 212.762 9.31836 212.645 9.14258C212.547 8.9668 212.42 8.81055 212.264 8.67383C212.107 8.51758 211.912 8.39062 211.678 8.29297C211.443 8.19531 211.17 8.15625 210.857 8.17578C210.525 8.19531 210.262 8.2832 210.066 8.43945C209.871 8.5957 209.715 8.78125 209.598 8.99609C209.5 9.19141 209.441 9.40625 209.422 9.64062C209.402 9.875 209.412 10.0801 209.451 10.2559C209.49 10.373 209.549 10.5 209.627 10.6367C209.705 10.7539 209.812 10.8809 209.949 11.0176C210.086 11.1543 210.271 11.2715 210.506 11.3691C210.057 11.4277 209.656 11.4766 209.305 11.5156C208.953 11.5352 208.65 11.5645 208.396 11.6035C208.104 11.6426 207.85 11.6719 207.635 11.6914C207.42 11.7109 207.166 11.75 206.873 11.8086C206.619 11.8477 206.307 11.8965 205.936 11.9551C205.564 12.0137 205.135 12.0918 204.646 12.1895C204.764 12.0527 204.871 11.9258 204.969 11.8086C205.066 11.6719 205.154 11.5547 205.232 11.457C205.311 11.3398 205.389 11.2324 205.467 11.1348ZM209.861 14.6211C209.51 14.6406 209.158 14.7285 208.807 14.8848C208.455 15.0215 208.143 15.2266 207.869 15.5C207.596 15.7539 207.361 16.0566 207.166 16.4082C206.99 16.7402 206.902 17.1113 206.902 17.5215C206.902 17.9316 207 18.293 207.195 18.6055C207.41 18.8984 207.684 19.1426 208.016 19.3379C208.367 19.5332 208.738 19.6504 209.129 19.6895C209.539 19.7285 209.939 19.6895 210.33 19.5723C210.701 19.4355 211.053 19.2207 211.385 18.9277C211.717 18.6152 212 18.2832 212.234 17.9316C212.469 17.5605 212.635 17.1992 212.732 16.8477C212.83 16.4766 212.84 16.1738 212.762 15.9395C212.605 15.4316 212.254 15.0801 211.707 14.8848C211.16 14.6699 210.545 14.582 209.861 14.6211ZM232.303 6.27148C232.127 6.70117 231.971 7.0918 231.834 7.44336C231.717 7.79492 231.609 8.10742 231.512 8.38086C231.414 8.69336 231.326 8.9668 231.248 9.20117C231.17 9.47461 231.082 9.78711 230.984 10.1387C230.887 10.4512 230.76 10.8418 230.604 11.3105C230.467 11.7598 230.301 12.2969 230.105 12.9219C229.949 11.9844 229.666 11.2422 229.256 10.6953C228.846 10.1289 228.426 9.68945 227.996 9.37695C227.488 9.02539 226.941 8.77148 226.355 8.61523C225.301 8.43945 224.539 8.45898 224.07 8.67383C223.602 8.88867 223.289 9.16211 223.133 9.49414C223.055 9.63086 222.967 9.80664 222.869 10.0215C222.791 10.2168 222.723 10.4219 222.664 10.6367C222.625 10.8516 222.615 11.0664 222.635 11.2812C222.654 11.4961 222.742 11.6719 222.898 11.8086C222.996 11.9062 223.25 12.043 223.66 12.2188C224.07 12.375 224.559 12.5605 225.125 12.7754C225.711 12.9707 226.326 13.1855 226.971 13.4199C227.635 13.6543 228.26 13.8887 228.846 14.123C229.432 14.3574 229.939 14.5918 230.369 14.8262C230.799 15.0605 231.082 15.2754 231.219 15.4707C231.336 15.666 231.463 15.9297 231.6 16.2617C231.756 16.5742 231.863 16.9258 231.922 17.3164C232 17.6875 232.02 18.0781 231.98 18.4883C231.961 18.8789 231.854 19.2695 231.658 19.6602C231.463 20.0508 231.15 20.4121 230.721 20.7441C230.311 21.0762 229.754 21.3496 229.051 21.5645C228.23 21.8184 227.439 21.8867 226.678 21.7695C225.916 21.6523 225.213 21.4766 224.568 21.2422C223.943 21.0078 223.396 20.7832 222.928 20.5684C222.459 20.334 222.127 20.2363 221.932 20.2754C221.717 20.3145 221.473 20.4219 221.199 20.5977C220.926 20.7734 220.662 20.959 220.408 21.1543C220.174 21.3301 219.969 21.4961 219.793 21.6523C219.617 21.7891 219.529 21.8379 219.529 21.7988C219.529 21.7598 219.559 21.6426 219.617 21.4473C219.695 21.252 219.773 21.0176 219.852 20.7441C219.949 20.4512 220.037 20.1387 220.115 19.8066C220.213 19.4551 220.281 19.123 220.32 18.8105C220.359 18.5566 220.408 18.2441 220.467 17.873C220.506 17.541 220.555 17.1406 220.613 16.6719C220.691 16.1836 220.779 15.5977 220.877 14.9141C220.975 15.4219 221.111 15.8613 221.287 16.2324C221.482 16.6035 221.668 16.9258 221.844 17.1992C222.059 17.5117 222.264 17.7754 222.459 17.9902C222.752 18.2637 223.094 18.5176 223.484 18.752C223.895 18.9863 224.305 19.1914 224.715 19.3672C225.125 19.5234 225.516 19.6211 225.887 19.6602C226.258 19.6992 226.57 19.6602 226.824 19.543C227.078 19.4258 227.293 19.2109 227.469 18.8984C227.664 18.5859 227.801 18.2441 227.879 17.873C227.957 17.502 227.986 17.1504 227.967 16.8184C227.947 16.4668 227.859 16.1836 227.703 15.9688C227.586 15.832 227.312 15.6562 226.883 15.4414C226.473 15.2266 225.975 14.9922 225.389 14.7383C224.822 14.4844 224.217 14.2207 223.572 13.9473C222.947 13.6738 222.352 13.4004 221.785 13.127C221.238 12.834 220.779 12.5605 220.408 12.3066C220.057 12.0332 219.861 11.7891 219.822 11.5742C219.783 11.2617 219.754 10.9199 219.734 10.5488C219.715 10.1582 219.734 9.77734 219.793 9.40625C219.871 9.01562 220.008 8.64453 220.203 8.29297C220.418 7.94141 220.73 7.64844 221.141 7.41406C221.414 7.25781 221.775 7.14062 222.225 7.0625C222.674 6.98438 223.172 6.94531 223.719 6.94531C224.266 6.92578 224.832 6.94531 225.418 7.00391C226.004 7.04297 226.561 7.10156 227.088 7.17969C227.635 7.23828 228.123 7.31641 228.553 7.41406C229.002 7.51172 229.344 7.59961 229.578 7.67773C229.852 7.77539 230.145 7.78516 230.457 7.70703C230.73 7.64844 231.023 7.52148 231.336 7.32617C231.648 7.13086 231.971 6.7793 232.303 6.27148Z" fill="black"/>
</svg>
